<?xml version="1.0" encoding="utf-8"?>
<!-- Generator: Adobe Illustrator 15.1.0, SVG Export Plug-In . SVG Version: 6.00 Build 0)  -->
<!DOCTYPE svg PUBLIC "-//W3C//DTD SVG 1.1//EN" "http://www.w3.org/Graphics/SVG/1.1/DTD/svg11.dtd">
<svg version="1.1" id="Layer_1" xmlns="http://www.w3.org/2000/svg" xmlns:xlink="http://www.w3.org/1999/xlink" x="0px" y="0px"
	 width="114px" height="226.161px" viewBox="339 193 114 226.161" enable-background="new 339 193 114 226.161"
	 xml:space="preserve">
<polygon fill="#F57F20" points="339,193 339,419.161 339.184,419.161 395.562,386 452.889,418.73 452.455,419.161 453,419.161 
	453,193 "/>
<g>
	<path fill="#FFFFFF" d="M432.195,293.29v-0.338h-0.082c-0.615-2.264-2.779-3.939-5.363-3.939v3.939h-0.01l0.135,56.979
		c0,0-8.029-2.592-15.283-5.75c-8.383-3.647-15.086,0.322-15.7,0.705v0.037c0,0-0.021-0.014-0.029-0.02
		c-0.007,0.006-0.03,0.02-0.03,0.02v-0.037c-0.613-0.383-7.316-4.354-15.698-0.705c-7.256,3.158-15.286,5.75-15.286,5.75
		l0.136-56.979h-0.028v-4.236c-2.553,0-4.677,1.823-5.149,4.236h-0.094v0.909c-0.001,0.035-0.006,0.069-0.006,0.104
		c0,0.035,0.005,0.068,0.006,0.103v61.318h72.484v-60.153c0.062-0.315,0.1-0.639,0.1-0.971
		C432.295,293.929,432.258,293.604,432.195,293.29z"/>
	<g>
		<path fill="#FFFFFF" d="M377.941,325.16c1.675,2.994,3.604,5.859,5.748,8.57l12.293-11.959l12.333,11.985
			c2.125-2.68,4.043-5.534,5.737-8.549l-18.07-17.39L377.941,325.16z"/>
		<path fill="#FFFFFF" d="M422.051,288.401c-2.115,0.644-4.367,0.995-6.701,0.995c-8.252,0-15.461-4.338-19.344-10.788
			c-3.893,6.45-11.1,10.788-19.348,10.788c-2.333,0-4.586-0.352-6.698-0.99c-0.55,6.292-0.153,12.508,1.099,18.486h49.857
			C422.215,300.658,422.574,294.446,422.051,288.401"/>
	</g>
</g>
</svg>
