<svg xmlns="http://www.w3.org/2000/svg" width="114" height="226.161" viewBox="339 193 114 226.161"><path fill="#F57F20" d="M339 193v226.16h.184L395.562 386l57.327 32.73-.435.43H453V193z"/><g fill="#FFF"><path d="M432.195 293.29v-.338h-.082c-.615-2.264-2.78-3.94-5.363-3.94v3.94h-.01l.135 56.98s-8.03-2.593-15.283-5.75c-8.383-3.648-15.086.32-15.7.704v.037l-.03-.02a.377.377 0 0 1-.03.02v-.037c-.612-.383-7.315-4.354-15.697-.705-7.256 3.16-15.286 5.75-15.286 5.75l.135-56.978h-.028v-4.236a5.25 5.25 0 0 0-5.15 4.236h-.093v.91c0 .034-.006.068-.006.103 0 .035.005.068.006.103v61.318h72.484v-60.153c.062-.315.1-.64.1-.97a5.175 5.175 0 0 0-.103-.973z"/><path d="M377.94 325.16a64.976 64.976 0 0 0 5.75 8.57l12.292-11.96 12.333 11.986a64.985 64.985 0 0 0 5.737-8.55l-18.07-17.39-18.04 17.344zM422.05 288.4a22.982 22.982 0 0 1-6.7.996c-8.252 0-15.46-4.338-19.344-10.788-3.893 6.45-11.1 10.788-19.348 10.788-2.333 0-4.586-.352-6.698-.99a63.234 63.234 0 0 0 1.1 18.486h49.856c1.3-6.234 1.658-12.446 1.135-18.49"/></g></svg>