<svg xmlns="http://www.w3.org/2000/svg" width="114" height="226.161" viewBox="0 0 114 226.161"><path fill="#E87411" d="M0 0v226.161h.184L56.562 193l57.327 32.731-.434.43H114V0z"/><g fill="#FFF"><path d="M93.195 100.29v-.338h-.082c-.615-2.264-2.779-3.938-5.363-3.938v3.938h-.01l.135 56.979s-8.029-2.593-15.283-5.75c-8.383-3.647-15.086.321-15.7.704v.037l-.028-.02a.377.377 0 0 1-.03.02v-.037c-.613-.383-7.316-4.354-15.698-.704-7.256 3.157-15.286 5.75-15.286 5.75l.137-56.979h-.028v-4.236a5.25 5.25 0 0 0-5.149 4.236h-.094v.909c-.001.035-.006.069-.006.104s.005.068.006.103v61.317H93.2v-60.152c.062-.314.1-.639.1-.971a5.347 5.347 0 0 0-.105-.972z"/><path d="M38.941 132.161a65.031 65.031 0 0 0 5.748 8.569l12.293-11.959 12.333 11.985a64.88 64.88 0 0 0 5.736-8.549l-18.069-17.391-18.041 17.345zm44.11-36.76a22.948 22.948 0 0 1-6.701.995c-8.252 0-15.461-4.338-19.344-10.788-3.893 6.45-11.1 10.788-19.348 10.788a23.22 23.22 0 0 1-6.698-.989 63.227 63.227 0 0 0 1.099 18.485h49.857c1.299-6.233 1.658-12.446 1.135-18.491"/></g></svg>