<svg xmlns="http://www.w3.org/2000/svg" width="441.8" height="48.968" viewBox="0 0 441.8 48.968"><path fill="#E87411" d="M0 0v48.968h.046l14.067-7.179 14.303 7.087-.108.092h.135V0z"/><g fill="#FFF"><path d="M23.252 17.564v-.086h-.02c-.154-.564-.693-.982-1.338-.982v.982h-.004l.035 14.216s-2.004-.646-3.814-1.435c-2.092-.909-3.764.08-3.917.177v.01l-.007-.006a.08.08 0 0 1-.008.006v-.01c-.153-.097-1.825-1.086-3.917-.177-1.81.787-3.813 1.435-3.813 1.435l.033-14.216h-.006v-1.057c-.638 0-1.167.455-1.284 1.057h-.025v.229l-.001.025.001.025v15.298h18.085V18.049a1.227 1.227 0 0 0 0-.485z"/><path d="M9.716 25.516c.418.746.899 1.46 1.435 2.138l3.066-2.985 3.078 2.991a16.365 16.365 0 0 0 1.432-2.132l-4.51-4.338-4.501 4.326zm11.006-9.172c-.528.16-1.09.248-1.673.248-2.059 0-3.857-1.082-4.826-2.691a5.624 5.624 0 0 1-4.827 2.691 5.822 5.822 0 0 1-1.671-.246 15.824 15.824 0 0 0 .273 4.611h12.44c.324-1.555.414-3.105.284-4.613"/></g><path d="M47.106 29.052h-2.374c-.63 0-1.509-.031-1.641-.049-.316-.033-.449-.332-.498-.68-.167-1.212-.516-2.738-1.046-3.566-.398-.615-.697-.863-1.311-1.211-.415-.232-.663-.268-.88-.268-.133 0-.299 0-.431.018l.017 3.832c0 .58.299.979.713 1.178.183.035.598.133.93.168.032.066.066.23.066.348a.704.704 0 0 1-.066.248c-.946 0-1.842-.049-2.904-.049-.531 0-3.069.049-3.302.049a1.047 1.047 0 0 1-.065-.266c0-.082.033-.248.082-.33.333-.018.73-.084.946-.117.481-.199.63-.697.681-1.111.082-.631.065-2.586.065-4.28 0-2.338-.017-3.699-.099-4.23-.166-.365-.299-.598-.697-.896a19.13 19.13 0 0 0-1.062-.148c-.016-.066-.033-.232-.033-.299s.033-.199.084-.316c.099 0 .73.035.979.035.581 0 2.023.033 2.273.033.828 0 2.57-.117 3.815-.117.88 0 1.593.066 1.991.184 1.211.381 2.074 1.674 2.074 3.018 0 .896-.365 1.66-1.029 2.158-.314.25-.597.465-1.824.613a6.117 6.117 0 0 0-.681.1c.198.084.415.166.681.266.58.199 1.094.414 1.244.549.398.365.879 1.145 1.227 1.973.25.632.498 1.144.714 1.907.067.117.2.315.282.416.249.182.93.215 1.096.215.049.066.082.264.082.348s-.033.212-.099.277zm-5.094-10.484c-.464-.781-1.028-.896-2.322-.896-.348 0-.646.051-.697.1-.049.051-.1.166-.1.365v3.053l.018 1.41a3.8 3.8 0 0 0 .613.035c.614 0 1.029-.051 1.361-.135.812-.199 1.51-1.377 1.51-2.406 0-.563-.118-1.078-.383-1.526zm19.394 10.484c-1.078 0-2.404-.049-3.434-.049-.631 0-1.36.033-1.643.033h-1.244c-.083-.066-.1-.232-.116-.297 0-.068.017-.199.099-.302.647-.03.996-.099 1.229-.215.148-.166.232-.479.232-.812-.066-.25-.199-.648-.432-1.311a15.47 15.47 0 0 0-.382-1.012c-.066-.117-.216-.381-.349-.482-.696.016-2.555-.016-3.717.033a3.46 3.46 0 0 0-.248.613l-.631 1.939c.066.549.249.914.481 1.129.149.066.598.133 1.013.166.049.082.082.215.066.281a.781.781 0 0 1-.066.299h-.449c-.597 0-1.244-.066-1.873-.066-.582 0-1.594.033-1.941.033a.511.511 0 0 1-.067-.266c.017-.066.05-.23.067-.314.713-.199 1.476-.383 1.74-.979.498-1.21.383-.896 1.18-3.001.812-2.16 1.41-3.668 1.774-4.531.464-1.062.696-1.658.747-1.775.166-.447.365-.83.514-.961.1-.117.448-.232.58-.232.167 0 .848.133.947.264.032.051.1.184.148.316l.73 1.809 2.488 6.205c.315.764.465 1.11.746 1.773.134.332.332.714.432.798.083.065.946.297 1.377.364.033.064.084.216.1.281a.487.487 0 0 1-.098.269zm-6.569-6.103c-.266-.73-.83-2.141-1.146-2.887a6.27 6.27 0 0 1-.148-.332c-.183.447-.398.945-.714 1.725-.464 1.18-.847 2.256-.913 2.488h2.008c.465 0 .93 0 1.229-.066a8.02 8.02 0 0 0-.316-.928zm20.639 6.103h-2.372c-.631 0-1.511-.031-1.643-.049-.316-.033-.449-.332-.498-.68-.166-1.212-.515-2.738-1.045-3.566-.398-.615-.697-.863-1.311-1.211-.416-.232-.664-.268-.881-.268-.132 0-.298 0-.431.018l.017 3.832c0 .58.299.979.713 1.178.184.035.598.133.93.168.033.066.066.23.066.348a.683.683 0 0 1-.066.248c-.946 0-1.842-.049-2.903-.049-.531 0-3.069.049-3.302.049a1.013 1.013 0 0 1-.066-.266c0-.082.033-.248.083-.33.332-.018.729-.084.946-.117.48-.199.629-.697.68-1.111.083-.631.066-2.586.066-4.28 0-2.338-.018-3.699-.1-4.23-.166-.365-.299-.598-.697-.896a19.13 19.13 0 0 0-1.062-.148c-.017-.066-.032-.232-.032-.299s.032-.199.082-.316c.1 0 .73.035.979.035.581 0 2.025.033 2.273.033.83 0 2.572-.117 3.816-.117.879 0 1.592.066 1.99.184 1.212.381 2.074 1.674 2.074 3.018 0 .896-.365 1.66-1.029 2.158-.314.25-.596.465-1.824.613a6.131 6.131 0 0 0-.68.1c.198.084.414.166.68.266.58.199 1.095.414 1.244.549.398.365.879 1.145 1.228 1.973.249.632.498 1.144.714 1.907.066.117.199.315.282.416.249.182.929.215 1.095.215.05.066.083.264.083.348s-.033.212-.099.277zm-5.093-10.484c-.465-.781-1.029-.896-2.324-.896-.348 0-.646.051-.697.1-.049.051-.099.166-.099.365v3.053l.017 1.41c.199.035.447.035.614.035.614 0 1.028-.051 1.359-.135.813-.199 1.511-1.377 1.511-2.406 0-.563-.118-1.078-.381-1.526zm17.984 10.236c-.018.15-.018.184-.067.266-.165.051-.314.033-.447.033-3.353 0-4.878-.1-5.409-.1-.963 0-1.76-.033-2.174-.033-.448 0-2.406.051-2.937.051h-.548a.632.632 0 0 1-.082-.299c0-.102.033-.266.082-.365.664-.033 1.344-.133 1.494-.248.1-.15.332-.93.365-1.576.016-.412.032-1.427.032-2.124V20.99c0-.764-.017-1.725-.05-2.074-.149-.795-.365-.879-.598-1.078-.231-.133-1.012-.115-1.211-.182-.05-.066-.082-.248-.082-.332 0-.066.032-.199.082-.266h.564c.431 0 1.277.033 2.273.033.68 0 2.289-.018 3.069-.018 1.442 0 1.825-.016 2.771-.016.664 0 1.294.033 1.428.033.331 0 .364.051.381.215.033.416.1 1.727.1 2.74-.133.064-.149.098-.25.098-.082 0-.248 0-.348-.033-.48-.812-.963-1.576-1.593-2.057-.249-.199-.597-.301-1.062-.332-.15 0-.598-.018-1.56-.018-.765 0-.847.018-.995.033-.018.15-.051.365-.066.564-.018.299-.051.812-.051 2.406v1.543h.348c.233 0 .665-.051.963-.133a2.015 2.015 0 0 0 1.129-.863c.033-.051.216-.746.266-.979.1-.051.314-.051.432-.051.165 0 .265.033.332.066-.051.6-.167 1.742-.167 2.572 0 .664.1 1.875.1 2.322a.585.585 0 0 1-.331.084c-.133 0-.35-.018-.432-.066-.033-.232-.133-1.145-.281-1.376-.168-.266-.332-.514-.748-.697a2.622 2.622 0 0 0-1.012-.232h-.613v3.634c0 .762.066.762.183 1.043.116.268.381.664.63.715.148.033.563.084 1.096.084h1.326c.615 0 .996-.033 1.244-.184.448-.266 1.262-1.293 1.826-2.57.115-.033.248-.033.365-.033.133 0 .165 0 .248.051.017.148.017.248.017.482 0 1.342 0 2.356-.032 2.686zm17.486-.53c-.747.694-1.659.812-2.854.795l-5.01-.065c-.448 0-1.892.033-2.357.033-.314 0-.613 0-.68-.017-.032-.065-.05-.231-.05-.299s.018-.216.083-.332c.963 0 1.693-.183 1.759-.433.1-.348.2-.93.249-1.459.018-.447.051-1.79.051-3.334 0-1.393-.084-3.717-.1-3.883a5.27 5.27 0 0 0-.101-.746c-.083-.314-.314-.68-.779-.748a182.34 182.34 0 0 1-1.179-.148 1.095 1.095 0 0 1-.049-.299c0-.1.016-.182.065-.266.083-.016.267-.016.398-.016h3.933c1.013 0 2.156-.049 2.838-.049.912 0 1.725.115 2.205.348 1.112.514 1.611 1.428 1.611 2.705 0 1.045-.399 1.809-1.096 2.123-.217.1-.83.266-1.129.348-.083.016-.299.066-.299.133 0 .1.283.115.481.15.266.049 1.013.199 1.211.281.299.117.995.582 1.312 1.18.281.496.432 1.062.432 1.69.001.948-.331 1.726-.945 2.308zm-2.306-3.797c-.481-.863-.979-1.08-1.959-1.295a5.141 5.141 0 0 0-1.111-.117c-.348 0-.631.018-.68.082 0 .035-.018.234-.018.564v2.937c0 .48.018.598.051.797.166.365.48.68.829.912.134.033.515.051.697.051.979 0 1.327-.184 1.809-.664.431-.465.663-1.145.663-2.105 0-.451-.099-.848-.281-1.162zm-.846-5.809c-.267-.498-.648-.779-1.162-.896-.232-.066-.564-.1-.945-.1-.217 0-.482.018-.73.018-.018.516-.051 2.57-.051 2.57v1.311c0 .465.018.781.051.814.017.033.231.033.48.033.681 0 1.76-.184 1.958-.348.083-.066.183-.166.282-.35a3.114 3.114 0 0 0 .447-1.627c0-.513-.115-1.011-.33-1.425zm17.432 8.61a5.933 5.933 0 0 1-2.306 1.576 6.932 6.932 0 0 1-2.522.479c-1.443 0-2.688-.397-3.783-1.192-1.443-1.078-2.372-2.954-2.372-4.862 0-1.193.332-2.338.962-3.367.979-1.643 3.17-3.086 5.592-3.086 1.095 0 2.124.283 3.152.846 1.924 1.062 2.953 2.855 2.953 5.178 0 1.742-.598 3.252-1.676 4.428zm-2.274-8.592c-.497-.715-1.359-1.145-2.256-1.145-.582 0-1.162.182-1.727.646-1.061.879-1.658 2.705-1.658 5.01 0 1.561.348 3.351.979 4.312.465.748 1.277 1.111 2.207 1.111.68 0 1.278-.197 1.759-.597.946-.778 1.643-2.985 1.643-5.491 0-1.723-.316-2.985-.947-3.846zm16.889 8.592a5.93 5.93 0 0 1-2.305 1.576 6.924 6.924 0 0 1-2.522.479c-1.444 0-2.688-.397-3.783-1.192-1.443-1.078-2.372-2.954-2.372-4.862 0-1.193.332-2.338.962-3.367.979-1.643 3.169-3.086 5.592-3.086 1.095 0 2.124.283 3.152.846 1.925 1.062 2.953 2.855 2.953 5.178 0 1.742-.597 3.252-1.677 4.428zm-2.272-8.592c-.497-.715-1.36-1.145-2.256-1.145-.581 0-1.161.182-1.726.646-1.062.879-1.66 2.705-1.66 5.01 0 1.561.35 3.351.98 4.312.464.748 1.277 1.111 2.206 1.111.681 0 1.277-.197 1.759-.597.945-.778 1.643-2.985 1.643-5.491 0-1.723-.315-2.985-.946-3.846zm19.876 10.335h-.564c-.763 0-1.891-.018-2.77-.018-.582 0-2.107.065-2.556.065h-.431c-.051-.049-.084-.198-.084-.267 0-.062.033-.247.066-.312.332-.066.979-.281 1.277-.466-.132-.183-.414-.597-1.029-1.228l-2.67-2.788c-.133-.133-.283-.281-.365-.281-.083 0-.199.049-.232.1l.066 3.3c.018.631.266.945.597 1.146.101.065.581.183 1.112.199.049.049.1.196.1.297a.729.729 0 0 1-.066.315h-.581c-.647 0-1.958-.065-2.555-.065-.78 0-2.04.049-2.688.049h-.713c-.05-.082-.05-.229-.05-.299 0-.065.033-.215.065-.297.863-.084 1.428-.25 1.645-.433.215-.383.248-1.229.248-2.619l.016-5.293c0-.598-.016-1.162-.049-1.344-.1-.465-.283-.682-.614-.896-.165-.117-.929-.166-1.146-.199-.065-.082-.082-.199-.082-.316 0-.082.017-.264.082-.314h.316c.598 0 1.791.051 2.406.051.53 0 1.691-.018 2.554-.018h.962c.051.082.101.199.101.266s-.017.232-.033.314a9.063 9.063 0 0 0-1.146.217c-.298.266-.414.48-.53.846l-.017 4.43c.232-.232.896-.93 1.228-1.26.73-.699 1.36-1.328 1.825-1.875.714-.764 1.178-1.277 1.327-1.461a.465.465 0 0 0 .083-.281c-.017-.201-.1-.266-.281-.365-.266-.135-.863-.232-1.013-.266-.065-.084-.05-.232-.05-.316 0-.082.018-.182.066-.266.646 0 1.129.051 1.609.051.182 0 1.692-.033 2.322-.033h.498c.051.018.083.199.083.266s-.032.25-.05.299c-.764.182-1.709.43-2.455 1.195l-2.854 2.887c-.066.064-.084.115-.184.229.133.15.383.432.697.732.365.348.913.945 1.643 1.656a72.054 72.054 0 0 1 2.008 2.04c.498.531.896.965 1.427 1.461.183.184.647.498 1.427.58.033.068.084.232.084.283a.798.798 0 0 1-.082.302zm6.336.264c-1.046 0-1.892-.08-3.053-.664-.166-.08-.432-.23-.531-.23-.116 0-.481.23-.847.531-.231 0-.713-.166-.762-.332.033-.266.182-.863.182-1.676 0-.332-.066-1.51-.066-1.727a.66.66 0 0 1 .315-.098c.116 0 .349 0 .464.033.167.646.797 1.654 1.179 2.17.647.896 1.858 1.277 2.604 1.277.697 0 1.328-.197 1.742-.68.465-.514.664-.963.664-1.477 0-.797-.414-1.358-1.742-1.839-.299-.1-2.522-.748-3.003-.963-.714-.299-1.228-.715-1.593-1.262a3.947 3.947 0 0 1-.598-2.074c0-1.891 1.643-3.367 3.899-3.367 1.046 0 1.94.1 3.119.996.232-.217.464-.449.714-.6.248 0 .58.033.729.234-.05.297-.149 1.176-.149 1.607 0 .498.083.996.133 1.412-.1.082-.216.164-.365.164a3.11 3.11 0 0 1-.397-.033c-.365-.846-.714-1.275-1.112-1.857-.48-.713-1.261-1.195-2.207-1.195-1.062 0-2.023.83-2.023 1.727 0 .58.531 1.326.896 1.51.547.266 1.393.547 2.422.812.879.232 1.525.48 1.875.697 1.277.713 1.875 1.676 1.875 3.202.001 2.426-1.842 3.702-4.364 3.702zm20.506-.216h-.646c-.415 0-.896-.049-1.378-.049-.779 0-1.775.049-2.156.049-.051-.032-.066-.114-.066-.198 0-.066.016-.131.049-.199.797-.033 1.129-.164 1.129-.496 0-.133-.017-.398-.266-1.062-.232-.596-.365-.878-.432-1.027-.033-.049-.049-.082-.232-.082h-2.588c-.166.197-.382.775-.613 1.572-.051.201-.051.4-.051.467 0 .265.25.578 1.162.597a.519.519 0 0 1 .066.231c0 .051 0 .117-.033.182h-.216c-.614 0-.796-.03-1.427-.03-.432 0-1.443.03-1.775.03a.303.303 0 0 1-.05-.161c0-.067 0-.119.05-.22.48-.1.945-.248 1.178-.598.133-.199.564-.961 1.045-2.138.449-1.096 1.013-2.488 1.262-3.07.332-.713.447-.945.564-1.193.183-.365.365-.73.447-.863.066-.1.232-.148.315-.148.134 0 .299.082.364.164.084.15.167.316.2.414.464 1.129.846 2.143 1.442 3.553.299.712.449 1.16.781 1.908.215.463.364.811.58 1.241.314.615.812.632 1.294.746.034.067.083.117.083.203.001.063-.032.111-.082.177zm-5.192-6.52h-.018c-.166.316-.48 1.031-.598 1.328-.431 1.064-.58 1.428-.663 1.578h2.456c-.183-.482-.812-1.992-1.177-2.906zm16.74-1.293c-.83.033-1.561.482-1.561 1.826l-.016 4.229c0 .166.065 1.358.065 1.823a.72.72 0 0 1-.331.136c-.051 0-.116-.052-.217-.136l-5.807-6.252.066 1.277.017 2.303c0 .185.033.615.066.931.05.517.199.696.415.881.298.248.779.332 1.111.363.033.065.05.133.05.184a.498.498 0 0 1-.067.216h-.629c-.531 0-.946-.017-1.51-.017-.365 0-.863.03-1.228.03h-.267a.8.8 0 0 1-.033-.182c0-.049 0-.115.05-.215.415-.035 1.062-.232 1.311-.564.101-.217.134-.598.134-.996v-2.951c0-.48-.018-.713-.033-1.178-.018-.381-.101-.664-.283-.895a3.81 3.81 0 0 0-.414-.432c-.183-.166-.646-.299-.93-.416a.6.6 0 0 1-.049-.182c0-.051.016-.148.049-.217h.216c.167 0 1.062.051 1.743.051h.396a.995.995 0 0 1 .267.166l4.298 4.693c.33.367.746.848.979 1.146v-3.384c0-.465-.033-.779-.05-.947-.033-.348-.116-.645-.249-.877-.133-.217-.93-.332-1.344-.416a.737.737 0 0 1-.051-.248c0-.049 0-.1.033-.184h.25c.398 0 1.044.068 1.443.068.979 0 1.293-.033 1.791-.033h.316a.486.486 0 0 1 .049.197.503.503 0 0 1-.046.202zm10.883 6.173c-.914 1.258-1.958 1.641-3.949 1.641-.398 0-1.095-.033-1.908-.033-1.775 0-2.107.033-2.521.033h-.199a.446.446 0 0 1 0-.414c.847-.035 1.145-.182 1.327-.48.05-.065.183-.416.183-1.178V25.09c0-1.759-.066-2.489-.083-2.722-.05-.48-.05-1.061-1.394-1.061-.017-.084-.05-.166-.05-.232s.017-.115.067-.199h.596c.299 0 .714.018.996.018.415 0 1.957-.1 2.904-.1 1.111 0 2.023.264 2.671.613 1.394.729 2.056 2.273 2.056 3.699-.001.763-.231 1.642-.696 2.323zm-2.406-5.376c-.646-.482-1.41-.746-2.438-.746-.315 0-.415.033-.631.066l-.017.115v5.739c0 .465.066.765.248.963.233.267.465.397.848.397 1.045 0 1.809-.299 2.389-.996.598-.68.912-1.508.912-2.568-.001-1.343-.399-2.291-1.311-2.97zm16.093 7.232c-1.046 0-1.892-.08-3.054-.664-.165-.08-.432-.23-.529-.23-.117 0-.482.23-.848.531-.232 0-.713-.166-.764-.332.034-.266.184-.863.184-1.676 0-.332-.066-1.51-.066-1.727a.654.654 0 0 1 .315-.098c.116 0 .348 0 .465.033.166.646.796 1.654 1.178 2.17.647.896 1.858 1.277 2.604 1.277.697 0 1.327-.197 1.742-.68.465-.514.664-.963.664-1.477 0-.797-.416-1.358-1.742-1.839-.299-.1-2.521-.748-3.004-.963-.713-.299-1.228-.715-1.592-1.262a3.947 3.947 0 0 1-.598-2.074c0-1.891 1.643-3.367 3.898-3.367 1.046 0 1.941.1 3.12.996.231-.217.464-.449.713-.6.249 0 .581.033.729.234-.05.297-.148 1.176-.148 1.607 0 .498.082.996.132 1.412-.099.082-.215.164-.364.164-.05 0-.349-.016-.398-.033-.365-.846-.713-1.275-1.111-1.857-.48-.713-1.261-1.195-2.207-1.195-1.062 0-2.024.83-2.024 1.727 0 .58.531 1.326.897 1.51.547.266 1.393.547 2.422.812.879.232 1.525.48 1.875.697 1.276.713 1.875 1.676 1.875 3.202 0 2.426-1.842 3.702-4.364 3.702zm15.578-6.154a6.255 6.255 0 0 1-1.926.299c-.58 0-1.643-.033-2.637-.1l.049 3.649c0 .498.166.778.332.979.314.365 1.062.465 1.56.531.035.065.035.196.035.299 0 .082 0 .198-.052.264h-.414c-.614 0-2.125-.064-3.602-.064-.597 0-2.156.064-2.688.064-.033-.082-.049-.098-.049-.23 0-.15.016-.266.031-.348.35-.035.715-.117.963-.168.547-.164.879-.68.945-1.178.049-.398.066-2.237.066-5.739 0-1.26-.033-1.99-.084-2.57-.101-.482-.166-.697-.446-.947-.332-.084-.847-.166-1.162-.264-.05-.084-.05-.268-.05-.334 0-.064.033-.182.083-.264.514 0 1.442.064 2.058.064.879 0 2.87-.098 4.146-.098 1.461 0 2.424.148 2.972.381 1.062.48 1.774 1.643 1.774 2.887.004 1.277-.726 2.438-1.904 2.887zm-1.428-4.545c-.332-.697-1.027-.979-2.156-.979-.48 0-.764.064-.963.082l-.016 4.859c0 .086.082.102.215.117.101.016.365.035.713.035.83 0 1.377-.168 1.728-.449.547-.48.847-1.229.847-2.074-.002-.581-.135-1.144-.368-1.591zm16.623 10.218c-.016.15-.016.184-.063.266-.167.051-.315.033-.448.033-3.353 0-4.879-.1-5.408-.1-.963 0-1.761-.033-2.174-.033-.449 0-2.406.051-2.938.051h-.549a.632.632 0 0 1-.082-.299c0-.102.033-.266.082-.365.664-.033 1.345-.133 1.494-.248.1-.15.332-.93.364-1.576.019-.412.032-1.427.032-2.124V20.99c0-.764-.016-1.725-.049-2.074-.148-.795-.365-.879-.598-1.078-.23-.133-1.013-.115-1.211-.182-.05-.066-.082-.248-.082-.332 0-.066.033-.199.082-.266h.563c.433 0 1.278.033 2.272.033.68 0 2.289-.018 3.069-.018 1.442 0 1.825-.016 2.771-.016.664 0 1.295.033 1.427.033.332 0 .364.051.383.215.033.416.101 1.727.101 2.74-.133.064-.15.098-.25.098-.084 0-.248 0-.349-.033-.481-.812-.962-1.576-1.594-2.057-.248-.199-.597-.301-1.062-.332-.148 0-.597-.018-1.56-.018-.763 0-.847.018-.996.033-.017.15-.05.365-.067.564-.016.299-.049.812-.049 2.406v1.543h.35c.232 0 .664-.051.963-.133a2.013 2.013 0 0 0 1.128-.863c.032-.051.216-.746.266-.979.101-.051.314-.051.433-.051a.71.71 0 0 1 .33.066c-.049.6-.166 1.742-.166 2.572 0 .664.101 1.875.101 2.322-.115.066-.198.084-.331.084s-.35-.018-.432-.066c-.033-.232-.133-1.145-.283-1.376-.165-.266-.331-.514-.746-.697a2.625 2.625 0 0 0-1.012-.232h-.613v3.634c0 .762.064.762.182 1.043.116.268.383.664.631.715.148.033.564.084 1.097.084h1.325c.615 0 .996-.033 1.244-.184.449-.266 1.262-1.293 1.826-2.57.115-.033.248-.033.364-.033.132 0 .167 0 .249.051.018.148.018.248.018.482.001 1.342.001 2.356-.035 2.686zm12.129-1.295c-.748 1.014-2.225 1.775-4.248 1.775-1.608 0-2.952-.445-3.864-1.109-1.442-1.096-2.354-2.838-2.354-4.96 0-1.992.629-3.586 1.772-4.713 1.047-1.045 2.424-1.625 4.165-1.625 1.893 0 2.754.514 3.684 1.178.231-.283.315-.498.563-.682.217.018.549.084.647.184 0 .314-.133 1.129-.133 1.625 0 .398.166 1.693.182 1.875-.065.066-.297.148-.397.148-.149 0-.299-.031-.364-.049-.267-.879-.562-1.643-.846-2.023-.682-.879-1.577-1.494-2.654-1.494-1.295 0-2.357.615-3.087 2.539-.315.715-.497 1.693-.497 2.904 0 1.275.313 2.47.53 3.02.397 1.026 1.627 2.188 3.353 2.188 1.244 0 2.338-.531 3.334-1.94.033 0 .082-.017.117-.017.381 0 .514.248.562.396-.135.284-.165.383-.465.78zm8.644 1.528h-.548c-.547 0-2.273-.05-2.521-.05-.863 0-2.521.082-3.187.082h-.282c0-.082-.031-.147-.031-.28 0-.066.017-.281.049-.351 1.211-.082 1.41-.381 1.608-.547.116-.216.199-.599.234-.994.015-.581.048-1.659.048-2.14 0-.963-.016-2.123-.033-2.955-.015-1.525-.033-2.207-.05-2.521-.065-.896-.349-1.26-.548-1.41-.114-.084-.48-.166-1.293-.232a2.064 2.064 0 0 1-.035-.314c0-.15.035-.215.084-.283h.365c.73.018 2.357.068 2.703.068.564 0 2.19-.084 2.889-.084h.48c.035.033.082.166.082.266 0 .066-.016.25-.047.316-.533.064-1.164.131-1.479.43-.115.1-.3.449-.3.896v4.082c0 1.541.018 3.185.035 3.981.114.596.297.961.562 1.276.299.065.979.134 1.227.147.034.066.051.248.051.332a.599.599 0 0 1-.063.285zm14.683.015c-1.078 0-2.406-.049-3.436-.049-.629 0-1.359.033-1.643.033h-1.244c-.084-.066-.1-.232-.115-.297 0-.068.016-.199.1-.302.646-.03.994-.099 1.229-.215.148-.166.23-.479.23-.812-.065-.25-.199-.648-.432-1.311a15.52 15.52 0 0 0-.381-1.012c-.066-.117-.215-.381-.35-.482-.695.016-2.556-.016-3.715.033a3.251 3.251 0 0 0-.25.613l-.631 1.939c.067.549.25.914.48 1.129.148.066.599.133 1.013.166.049.082.084.215.067.281 0 .068-.02.199-.067.299h-.446c-.599 0-1.246-.066-1.875-.066-.582 0-1.593.033-1.941.033a.51.51 0 0 1-.066-.266 7.32 7.32 0 0 0 .066-.314c.714-.199 1.477-.383 1.742-.979.498-1.21.381-.896 1.178-3.001.812-2.16 1.41-3.668 1.775-4.531.465-1.062.696-1.658.746-1.775.166-.447.364-.83.514-.961.102-.117.449-.232.582-.232.166 0 .847.133.945.264.032.051.1.184.148.316l.729 1.809 2.49 6.205c.314.764.463 1.11.746 1.773.132.332.332.714.432.798.082.065.945.297 1.377.364.033.064.084.216.101.281a.511.511 0 0 1-.098.269zm-6.57-6.103c-.267-.73-.83-2.141-1.146-2.887-.051-.1-.1-.217-.15-.332-.182.447-.396.945-.713 1.725-.465 1.18-.846 2.256-.912 2.488h2.009c.464 0 .928 0 1.228-.066a8.214 8.214 0 0 0-.316-.928zm19.211 5.541c-.033.465-.05.514-.349.514-.348 0-2.588.049-4.844.049-1.295 0-2.307-.016-3.353-.016-.714 0-1.892.051-2.472.051h-.334a.906.906 0 0 1-.049-.283c0-.082.032-.232.049-.297.398-.117 1.113-.283 1.528-.482.132-.232.216-.73.229-1.326 0-.283.018-.912.018-2.222 0-.533-.031-2.092-.083-4.299-.017-.846-.049-1.492-.101-1.658-.082-.25-.215-.531-.547-.682-.264-.066-.646-.051-1.045-.148-.033-.066-.051-.25-.051-.332 0-.117.033-.199.084-.266l6.256-.018c.049.035.065.199.065.283 0 .082-.017.25-.065.299-.765.033-1.711.016-1.711 1.26v1.893l.101 6.204c0 .314.3.779.53.979.332.283.73.432 1.41.432.963 0 1.277-.198 2.025-.58.928-.479 1.594-1.559 2.073-2.719.083-.033.249-.051.331-.051.133 0 .232.018.332.082.018.631.018 1.623.018 1.824.005.479-.011.995-.045 1.509zm17.452-.981c-.746 1.014-2.221 1.775-4.248 1.775-1.607 0-2.952-.445-3.864-1.109-1.442-1.096-2.354-2.838-2.354-4.96 0-1.992.631-3.586 1.774-4.713 1.045-1.045 2.423-1.625 4.165-1.625 1.891 0 2.754.514 3.684 1.178.232-.283.312-.498.562-.682.217.018.549.084.646.184 0 .314-.131 1.129-.131 1.625 0 .398.164 1.693.182 1.875-.066.066-.299.148-.396.148-.148 0-.301-.031-.365-.049-.266-.879-.564-1.643-.848-2.023-.68-.879-1.574-1.494-2.654-1.494-1.293 0-2.355.615-3.086 2.539-.316.715-.498 1.693-.498 2.904 0 1.275.315 2.47.53 3.02.397 1.026 1.628 2.188 3.353 2.188 1.246 0 2.34-.531 3.336-1.94.033 0 .084-.017.115-.017.383 0 .516.248.562.396-.131.284-.166.383-.465.78zm13.241-.231a5.936 5.936 0 0 1-2.307 1.576 6.931 6.931 0 0 1-2.521.479c-1.443 0-2.688-.397-3.783-1.192-1.441-1.078-2.373-2.954-2.373-4.862 0-1.193.332-2.338.963-3.367.98-1.643 3.17-3.086 5.592-3.086 1.096 0 2.125.283 3.152.846 1.926 1.062 2.951 2.855 2.951 5.178-.001 1.742-.596 3.252-1.674 4.428zm-2.274-8.592c-.498-.715-1.359-1.145-2.256-1.145-.582 0-1.162.182-1.727.646-1.062.879-1.658 2.705-1.658 5.01 0 1.561.348 3.351.979 4.312.465.748 1.277 1.111 2.207 1.111.68 0 1.277-.197 1.758-.597.945-.778 1.643-2.985 1.643-5.491-.001-1.723-.315-2.985-.946-3.846zm17.272 9.804c-.035.465-.051.514-.35.514-.348 0-2.588.049-4.846.049-1.293 0-2.307-.016-3.352-.016-.713 0-1.891.051-2.473.051h-.33a.855.855 0 0 1-.051-.283c0-.082.031-.232.051-.297.396-.117 1.111-.283 1.525-.482.131-.232.215-.73.23-1.326 0-.283.018-.912.018-2.222 0-.533-.033-2.092-.082-4.299-.016-.846-.049-1.492-.1-1.658-.084-.25-.217-.531-.549-.682-.264-.066-.646-.051-1.045-.148-.033-.066-.051-.25-.051-.332 0-.117.033-.199.082-.266l6.258-.018c.049.035.064.199.064.283 0 .082-.016.25-.064.299-.764.033-1.711.016-1.711 1.26v1.893l.1 6.204c0 .314.301.779.533.979.33.283.73.432 1.408.432.963 0 1.277-.198 2.025-.58.928-.479 1.592-1.559 2.072-2.719.084-.033.25-.051.334-.051.131 0 .23.018.33.082.018.631.018 1.623.018 1.824.004.479-.011.995-.044 1.509zm13.072 0c-.033.465-.049.514-.348.514-.35 0-2.588.049-4.846.049-1.295 0-2.307-.016-3.352-.016-.715 0-1.893.051-2.473.051h-.332a.852.852 0 0 1-.049-.283c0-.082.033-.232.049-.297.396-.117 1.111-.283 1.527-.482.131-.232.215-.73.23-1.326 0-.283.018-.912.018-2.222 0-.533-.033-2.092-.084-4.299-.018-.846-.049-1.492-.1-1.658-.082-.25-.215-.531-.547-.682-.266-.066-.648-.051-1.047-.148-.033-.066-.049-.25-.049-.332 0-.117.033-.199.084-.266l6.256-.018c.047.035.064.199.064.283 0 .082-.02.25-.064.299-.766.033-1.711.016-1.711 1.26v1.893l.1 6.204c0 .314.299.779.531.979.332.283.73.432 1.41.432.963 0 1.277-.198 2.023-.58.93-.479 1.594-1.559 2.072-2.719.082-.033.25-.051.334-.051.133 0 .23.018.33.082.02.631.02 1.623.02 1.824.005.479-.013.995-.046 1.509zm13.156.314c-.016.15-.016.184-.064.266-.168.051-.314.033-.447.033-3.354 0-4.879-.1-5.41-.1-.963 0-1.76-.033-2.174-.033-.447 0-2.406.051-2.936.051h-.547a.593.593 0 0 1-.086-.299c0-.102.033-.266.086-.365.66-.033 1.342-.133 1.49-.248.102-.15.332-.93.365-1.576.02-.412.033-1.427.033-2.124V20.99c0-.764-.016-1.725-.049-2.074-.15-.795-.365-.879-.598-1.078-.232-.133-1.012-.115-1.211-.182-.051-.066-.084-.248-.084-.332 0-.066.033-.199.084-.266h.562c.432 0 1.277.033 2.273.033.68 0 2.289-.018 3.068-.018 1.443 0 1.824-.016 2.771-.016.664 0 1.295.033 1.426.033.334 0 .367.051.385.215.031.416.098 1.727.098 2.74-.133.064-.148.098-.248.098-.084 0-.25 0-.35-.033-.48-.812-.961-1.576-1.592-2.057-.25-.199-.598-.301-1.062-.332-.148 0-.598-.018-1.561-.018-.762 0-.846.018-.994.033-.018.15-.051.365-.066.564-.018.299-.051.812-.051 2.406v1.543h.35c.23 0 .662-.051.963-.133a2.019 2.019 0 0 0 1.129-.863c.033-.051.215-.746.264-.979.102-.051.316-.051.434-.051.164 0 .266.033.33.066-.049.6-.166 1.742-.166 2.572 0 .664.102 1.875.102 2.322-.115.066-.199.084-.332.084s-.348-.018-.432-.066c-.033-.232-.133-1.145-.281-1.376-.166-.266-.332-.514-.748-.697a2.622 2.622 0 0 0-1.012-.232h-.613v3.634c0 .762.066.762.182 1.043.117.268.383.664.631.715.148.033.564.084 1.098.084h1.324c.615 0 .996-.033 1.246-.184.447-.266 1.26-1.293 1.822-2.57.119-.033.25-.033.365-.033.135 0 .168 0 .25.051.018.148.018.248.018.482-.002 1.342-.002 2.356-.035 2.686zm12.127-1.295c-.746 1.014-2.223 1.775-4.246 1.775-1.609 0-2.953-.445-3.867-1.109-1.443-1.096-2.355-2.838-2.355-4.96 0-1.992.631-3.586 1.775-4.713 1.045-1.045 2.422-1.625 4.166-1.625 1.889 0 2.754.514 3.684 1.178.23-.283.312-.498.562-.682.215.018.549.084.646.184 0 .314-.133 1.129-.133 1.625 0 .398.166 1.693.182 1.875-.064.066-.299.148-.396.148-.148 0-.299-.031-.365-.049-.266-.879-.562-1.643-.846-2.023-.682-.879-1.576-1.494-2.656-1.494-1.293 0-2.354.615-3.084 2.539-.316.715-.5 1.693-.5 2.904 0 1.275.318 2.47.533 3.02.396 1.026 1.625 2.188 3.35 2.188 1.246 0 2.342-.531 3.336-1.94.033 0 .084-.017.117-.017a.55.55 0 0 1 .564.396c-.135.284-.168.383-.467.78zm14.1-6.685c-.1 0-.184 0-.283-.031-.299-.781-.596-1.428-.877-1.811-.449-.596-.947-.979-1.977-1.26-.498-.018-1.012 0-1.244 0 0 2.871-.018 3.916-.018 5.459 0 1.193.018 1.875.033 3.665 0 .581.1 1.062.148 1.243.465.349 1.527.316 1.709.316a.59.59 0 0 1 .066.297c0 .084 0 .266-.051.348h-.465c-1.012 0-2.553-.049-3.035-.049-.598 0-2.041.066-2.654.066h-.646c-.018-.066-.018-.199-.018-.266 0-.133 0-.264.051-.381 1.99-.082 1.908-.432 1.975-.896.033-.264.051-1.357.051-3.798 0-2.82 0-3.336-.018-4.529a43.631 43.631 0 0 0-.049-1.461c-.268 0-1.229.016-1.729.066-.879.449-1.576 1.262-2.322 2.771-.064.033-.299.033-.363.033a.501.501 0 0 1-.268-.066v-3.17c0-.23.068-.281.283-.281h1.229c.93 0 2.621.033 4.68.033 2.652 0 5.258-.066 5.756-.066.25 0 .348.066.348.314v3.387c-.031.036-.248.067-.312.067zm8.328 8.213h-.547c-.549 0-2.275-.05-2.523-.05-.863 0-2.521.082-3.186.082h-.283c0-.082-.033-.147-.033-.28 0-.066.018-.281.051-.351 1.211-.082 1.41-.381 1.609-.547.115-.216.199-.599.23-.994.018-.581.053-1.659.053-2.14 0-.963-.018-2.123-.035-2.955-.018-1.525-.031-2.207-.049-2.521-.066-.896-.35-1.26-.549-1.41-.113-.084-.48-.166-1.293-.232a2.03 2.03 0 0 1-.031-.314c0-.15.031-.215.082-.283h.365c.729.018 2.354.068 2.703.068.564 0 2.189-.084 2.889-.084h.479a.503.503 0 0 1 .082.266c0 .066-.016.25-.049.316-.531.064-1.162.131-1.477.43-.117.1-.299.449-.299.896v4.082c0 1.541.018 3.185.033 3.981.115.596.297.961.562 1.276.299.065.98.134 1.229.147.033.066.049.248.049.332a.61.61 0 0 1-.062.285zm12.806-1.759a5.922 5.922 0 0 1-2.307 1.576 6.923 6.923 0 0 1-2.521.479c-1.441 0-2.688-.397-3.783-1.192-1.443-1.078-2.373-2.954-2.373-4.862 0-1.193.332-2.338.965-3.367.979-1.643 3.166-3.086 5.59-3.086 1.096 0 2.123.283 3.152.846 1.926 1.062 2.953 2.855 2.953 5.178.002 1.742-.596 3.252-1.676 4.428zm-2.271-8.592c-.498-.715-1.361-1.145-2.26-1.145-.58 0-1.158.182-1.725.646-1.061.879-1.658 2.705-1.658 5.01 0 1.561.35 3.351.979 4.312.465.748 1.277 1.111 2.207 1.111.68 0 1.275-.197 1.758-.597.947-.778 1.643-2.985 1.643-5.491.001-1.723-.315-2.985-.944-3.846zm19.326-1.114c-1.143.051-2.123.633-2.123 2.705v6.917c0 .25.018.746.018 1.229 0 .397-.115.664-.148.746-.066.035-.115.035-.197.035-.084 0-.385-.019-.467-.103l-7.666-8.608c-.082-.102-.197-.25-.297-.365-.018.58-.033 1.725-.033 3.035 0 .979.016 1.709.016 2.24 0 .58.1 1.809.217 2.057.562.748 1.41.881 1.99 1.029a.74.74 0 0 1 .051.266c0 .065-.018.266-.082.281h-.996c-.682 0-1.18-.05-1.908-.05-.498 0-1.262.05-1.594.05h-.314c-.033-.017-.051-.183-.051-.232 0-.082.035-.215.066-.297.863-.217 1.395-.482 1.744-.848.049-.281.1-.714.1-1.263V23.03c0-1.16.049-2.371.049-3.234 0-.232-.018-.416-.066-.531-.148-.332-.613-.746-.879-1.045-.449-.482-.996-.564-1.244-.631a2.221 2.221 0 0 1-.049-.316c0-.064.031-.164.064-.232.281 0 2.207.051 3.27.051.133 0 .365.018.498.018.098.064.197.148.248.215l5.541 6.139c.664.746 1.062 1.311 1.346 1.66.016-.182.033-.315.033-.714v-3.467c0-.682-.018-.93-.033-1.178-.051-.648-.184-1.344-.482-1.693-.432-.283-1.441-.398-1.709-.48-.066-.066-.082-.199-.082-.283 0-.066.016-.248.064-.281h.432c.186 0 .947.033 1.461.033 1.494 0 2.023-.033 2.855-.033h.379a.53.53 0 0 1 .051.232c-.007.08-.022.23-.073.312zm6.92 11.713c-1.045 0-1.893-.08-3.055-.664-.164-.08-.43-.23-.529-.23-.117 0-.48.23-.848.531-.23 0-.713-.166-.762-.332.033-.266.182-.863.182-1.676 0-.332-.064-1.51-.064-1.727a.647.647 0 0 1 .312-.098c.117 0 .35 0 .465.033.166.646.797 1.654 1.18 2.17.646.896 1.857 1.277 2.604 1.277.697 0 1.326-.197 1.742-.68.465-.514.664-.963.664-1.477 0-.797-.416-1.358-1.742-1.839-.299-.1-2.521-.748-3.002-.963-.715-.299-1.229-.715-1.594-1.262a3.947 3.947 0 0 1-.598-2.074c0-1.891 1.643-3.367 3.898-3.367 1.045 0 1.941.1 3.119.996.232-.217.463-.449.713-.6.248 0 .58.033.73.234-.051.297-.15 1.176-.15 1.607 0 .498.084.996.133 1.412-.1.082-.215.164-.365.164-.049 0-.348-.016-.395-.033-.367-.846-.715-1.275-1.113-1.857-.48-.713-1.262-1.195-2.207-1.195-1.061 0-2.021.83-2.021 1.727 0 .58.529 1.326.895 1.51.547.266 1.395.547 2.422.812.881.232 1.527.48 1.875.697 1.277.713 1.875 1.676 1.875 3.202-.001 2.426-1.843 3.702-4.364 3.702z" fill="#FFF"/></svg>