<svg xmlns="http://www.w3.org/2000/svg" width="114" height="226.161" viewBox="0 0 114 226.161"><path fill="#E87411" d="M0 0v226.16h.184L56.562 193l57.327 32.73-.435.43H114V0z"/><g fill="#FFF"><path d="M93.195 100.29v-.338h-.082c-.615-2.264-2.78-3.938-5.363-3.938v3.938h-.01l.135 56.98s-8.03-2.594-15.283-5.75c-8.383-3.648-15.086.32-15.7.703v.037l-.028-.02a.377.377 0 0 1-.03.02v-.037c-.613-.383-7.316-4.354-15.698-.704-7.256 3.158-15.286 5.75-15.286 5.75l.137-56.978h-.028v-4.236a5.25 5.25 0 0 0-5.15 4.236h-.094v.91c0 .034-.006.068-.006.103s.005.068.006.103v61.317H93.2v-60.152c.062-.314.1-.64.1-.97a5.347 5.347 0 0 0-.105-.973z"/><path d="M38.94 132.16a65.03 65.03 0 0 0 5.75 8.57l12.292-11.96 12.333 11.986a64.88 64.88 0 0 0 5.736-8.55l-18.068-17.39-18.04 17.345zM83.05 95.4a22.948 22.948 0 0 1-6.7.996c-8.252 0-15.46-4.338-19.344-10.788-3.893 6.45-11.1 10.788-19.348 10.788a23.22 23.22 0 0 1-6.698-.99 63.227 63.227 0 0 0 1.1 18.486h49.856c1.3-6.233 1.658-12.446 1.135-18.49"/></g></svg>