<svg xmlns="http://www.w3.org/2000/svg" width="441.8" height="48.968" viewBox="0 0 441.8 48.968"><path fill="#E87411" d="M0 0v48.968h.046l14.067-7.18 14.303 7.088-.108.092h.135V0z"/><g fill="#FFF"><path d="M23.252 17.564v-.086h-.02c-.154-.564-.693-.982-1.338-.982v.982h-.004l.035 14.216s-2.004-.646-3.814-1.435c-2.09-.91-3.763.08-3.916.176v.01l-.007-.006a.08.08 0 0 1-.008.006v-.01c-.154-.097-1.826-1.086-3.918-.177-1.81.786-3.813 1.434-3.813 1.434l.032-14.216h-.006V16.42c-.638 0-1.167.456-1.284 1.058h-.025v15.577h18.085V18.05a1.227 1.227 0 0 0 0-.486z"/><path d="M9.716 25.516c.418.746.9 1.46 1.435 2.138l3.067-2.985 3.078 2.99c.53-.668 1.008-1.38 1.432-2.132l-4.51-4.338-4.5 4.326zM20.722 16.344c-.528.16-1.09.248-1.673.248-2.06 0-3.858-1.082-4.827-2.69a5.624 5.624 0 0 1-4.827 2.69c-.58 0-1.144-.088-1.67-.246-.138 1.57-.04 3.12.272 4.61h12.44c.324-1.554.414-3.104.284-4.612"/></g><path d="M47.106 29.052h-2.374c-.63 0-1.51-.03-1.64-.05-.317-.032-.45-.33-.5-.68-.166-1.21-.515-2.737-1.045-3.565-.398-.615-.697-.863-1.31-1.21-.416-.233-.664-.27-.88-.27-.134 0-.3 0-.432.02l.017 3.83c0 .58.3.98.713 1.18.183.034.598.132.93.167.032.066.066.23.066.348a.704.704 0 0 1-.065.248c-.946 0-1.842-.05-2.904-.05-.53 0-3.068.05-3.3.05a1.047 1.047 0 0 1-.066-.266.82.82 0 0 1 .082-.33c.333-.018.73-.084.946-.117.48-.2.63-.697.68-1.11.083-.632.066-2.587.066-4.28 0-2.34-.017-3.7-.1-4.23-.165-.366-.298-.6-.696-.897a19.13 19.13 0 0 0-1.062-.148c-.016-.066-.033-.232-.033-.3s.033-.198.084-.315c.1 0 .73.035.98.035.58 0 2.023.033 2.273.033.828 0 2.57-.117 3.815-.117.88 0 1.593.066 1.99.184 1.212.38 2.075 1.674 2.075 3.018 0 .896-.365 1.66-1.03 2.158-.313.25-.596.465-1.823.613-.316.034-.433.052-.68.1.197.085.414.167.68.267.58.2 1.094.414 1.244.55.398.364.88 1.144 1.227 1.972.25.63.5 1.143.715 1.906.067.117.2.315.282.416.25.182.93.215 1.096.215.05.066.082.264.082.348s-.033.212-.1.277zm-5.094-10.484c-.464-.78-1.028-.896-2.322-.896-.348 0-.646.05-.697.1-.05.05-.1.166-.1.365v3.053l.018 1.41c.2.035.448.035.614.035.614 0 1.03-.05 1.36-.135.813-.2 1.51-1.377 1.51-2.406 0-.563-.117-1.078-.382-1.526zM61.406 29.052c-1.078 0-2.404-.05-3.434-.05-.63 0-1.36.034-1.643.034h-1.245c-.083-.066-.1-.232-.116-.297 0-.07.016-.2.098-.303.647-.03.996-.1 1.23-.215.147-.166.23-.48.23-.812-.065-.25-.198-.648-.43-1.31a15.47 15.47 0 0 0-.383-1.013c-.066-.117-.216-.38-.35-.482-.695.016-2.554-.016-3.716.033a3.46 3.46 0 0 0-.25.613l-.63 1.94c.066.55.25.914.48 1.13.15.065.6.132 1.014.165.05.082.082.215.066.28a.78.78 0 0 1-.066.3h-.45c-.596 0-1.243-.066-1.872-.066-.582 0-1.594.032-1.94.032a.51.51 0 0 1-.068-.266c.017-.066.05-.23.067-.314.714-.2 1.477-.383 1.74-.98.5-1.21.384-.895 1.18-3 .813-2.16 1.41-3.668 1.775-4.53.464-1.063.696-1.66.747-1.776.166-.447.365-.83.514-.96.1-.118.448-.233.58-.233.167 0 .848.133.947.264.032.05.1.184.148.316l.73 1.81 2.49 6.204c.314.764.464 1.11.745 1.773.134.332.332.714.432.798.083.065.946.297 1.377.364.033.064.084.216.1.28a.487.487 0 0 1-.098.27zm-6.57-6.103c-.265-.73-.83-2.142-1.145-2.888-.048-.1-.1-.217-.147-.332-.183.447-.398.945-.714 1.725-.465 1.18-.848 2.256-.914 2.488h2.008c.465 0 .93 0 1.23-.066a8.02 8.02 0 0 0-.317-.928zM75.476 29.052h-2.372c-.63 0-1.51-.03-1.643-.05-.315-.032-.448-.33-.497-.68-.166-1.21-.515-2.737-1.045-3.565-.398-.615-.697-.863-1.31-1.21-.417-.233-.665-.27-.882-.27-.132 0-.298 0-.43.02l.016 3.83c0 .58.3.98.713 1.18.184.034.598.132.93.167.033.066.066.23.066.348a.683.683 0 0 1-.065.248c-.946 0-1.842-.05-2.903-.05-.53 0-3.07.05-3.302.05a1.013 1.013 0 0 1-.066-.266c0-.082.033-.248.083-.33.332-.018.73-.084.946-.117.48-.2.63-.697.68-1.11.083-.632.066-2.587.066-4.28 0-2.34-.02-3.7-.1-4.23-.167-.366-.3-.6-.698-.897a19.13 19.13 0 0 0-1.062-.148c-.017-.066-.032-.232-.032-.3s.032-.198.082-.315c.1 0 .73.035.98.035.58 0 2.024.033 2.272.033.83 0 2.572-.117 3.816-.117.88 0 1.592.066 1.99.184 1.212.38 2.074 1.674 2.074 3.018 0 .896-.365 1.66-1.03 2.158-.313.25-.595.465-1.823.613a6.13 6.13 0 0 0-.68.1c.197.085.413.167.68.267.58.2 1.094.414 1.243.55.398.364.88 1.144 1.228 1.972.25.63.5 1.143.715 1.906.066.117.2.315.282.416.25.182.93.215 1.095.215.05.066.083.264.083.348s-.033.212-.1.277zm-5.093-10.484c-.465-.78-1.03-.896-2.324-.896-.35 0-.647.05-.698.1-.05.05-.1.166-.1.365v3.053l.018 1.41c.2.035.447.035.614.035.614 0 1.028-.05 1.36-.135.812-.2 1.51-1.377 1.51-2.406 0-.563-.118-1.078-.38-1.526zM88.367 28.804c-.018.15-.018.184-.067.266-.165.05-.314.033-.447.033-3.353 0-4.878-.1-5.41-.1-.962 0-1.76-.033-2.173-.033-.448 0-2.406.05-2.937.05h-.548a.632.632 0 0 1-.082-.298.97.97 0 0 1 .082-.365c.664-.033 1.344-.133 1.494-.248.1-.15.33-.93.364-1.577a73.38 73.38 0 0 0 .032-2.124v-3.42c0-.764-.017-1.725-.05-2.074-.15-.795-.365-.88-.598-1.078-.23-.133-1.012-.115-1.21-.182-.05-.066-.083-.248-.083-.332 0-.066.032-.2.082-.266h.564c.432 0 1.278.033 2.274.033.68 0 2.29-.017 3.07-.017 1.44 0 1.824-.016 2.77-.016.664 0 1.294.033 1.428.033.33 0 .364.05.38.215.034.416.1 1.727.1 2.74-.132.064-.148.098-.25.098-.08 0-.247 0-.347-.033-.48-.812-.963-1.576-1.593-2.057-.25-.2-.597-.3-1.062-.332-.15 0-.598-.017-1.56-.017-.765 0-.847.018-.995.033-.018.15-.05.365-.066.564-.02.3-.052.812-.052 2.406v1.543h.348c.233 0 .665-.052.963-.134.447-.133.878-.447 1.128-.863.033-.05.216-.746.266-.98.1-.05.314-.05.432-.05.165 0 .265.033.332.066-.05.6-.167 1.74-.167 2.57 0 .665.1 1.876.1 2.323a.585.585 0 0 1-.33.084c-.133 0-.35-.018-.432-.066-.033-.23-.133-1.144-.28-1.375-.17-.266-.333-.514-.75-.697a2.622 2.622 0 0 0-1.01-.232h-.614v3.634c0 .762.066.762.183 1.043.116.268.38.664.63.715.148.033.563.084 1.096.084H84.7c.614 0 .995-.033 1.243-.184.448-.266 1.262-1.293 1.826-2.57.114-.033.247-.033.364-.033.133 0 .165 0 .248.05.017.15.017.25.017.483 0 1.342 0 2.356-.033 2.686zM105.853 28.274c-.747.694-1.66.812-2.854.795l-5.01-.066c-.45 0-1.893.033-2.358.033-.314 0-.613 0-.68-.017-.032-.065-.05-.23-.05-.3s.018-.215.083-.33c.963 0 1.693-.184 1.76-.434.1-.348.2-.93.248-1.46.018-.446.05-1.79.05-3.333 0-1.393-.083-3.717-.1-3.883a5.27 5.27 0 0 0-.1-.746c-.083-.314-.314-.68-.78-.748-.397-.05-.928-.115-1.178-.148a1.095 1.095 0 0 1-.05-.3c0-.1.017-.18.066-.265.084-.016.268-.016.4-.016h3.932c1.013 0 2.156-.05 2.838-.05.912 0 1.725.116 2.205.35 1.112.513 1.61 1.427 1.61 2.704 0 1.046-.398 1.81-1.095 2.124-.217.1-.83.266-1.13.348-.082.016-.298.066-.298.133 0 .1.283.115.48.15.267.05 1.014.2 1.212.28.3.118.995.583 1.312 1.18a3.38 3.38 0 0 1 .432 1.69c0 .95-.33 1.727-.945 2.31zm-2.306-3.797c-.48-.863-.98-1.08-1.96-1.295a5.14 5.14 0 0 0-1.11-.117c-.348 0-.63.018-.68.082 0 .035-.018.234-.018.564v2.938c0 .48.017.598.05.797.166.365.48.68.83.912.133.033.514.05.696.05.98 0 1.327-.183 1.81-.663.43-.465.662-1.145.662-2.105 0-.452-.1-.85-.28-1.163zm-.846-5.81c-.266-.497-.647-.778-1.16-.895-.233-.066-.565-.1-.946-.1-.217 0-.482.018-.73.018-.018.516-.05 2.57-.05 2.57v1.31c0 .466.017.782.05.815.017.033.23.033.48.033.68 0 1.76-.184 1.958-.348.083-.066.183-.166.282-.35.3-.498.447-1.045.447-1.627 0-.513-.114-1.01-.33-1.425zM120.133 27.278a5.933 5.933 0 0 1-2.306 1.576 6.932 6.932 0 0 1-2.522.48c-1.443 0-2.688-.398-3.783-1.193-1.443-1.077-2.372-2.953-2.372-4.86 0-1.194.332-2.34.962-3.368.98-1.643 3.17-3.086 5.592-3.086 1.095 0 2.124.283 3.152.846 1.924 1.062 2.953 2.855 2.953 5.178 0 1.742-.6 3.252-1.677 4.428zm-2.274-8.592c-.498-.715-1.36-1.145-2.257-1.145-.582 0-1.162.183-1.727.647-1.06.88-1.658 2.705-1.658 5.01 0 1.56.348 3.35.98 4.312.464.747 1.276 1.11 2.206 1.11.68 0 1.278-.197 1.76-.597.945-.778 1.642-2.985 1.642-5.49 0-1.724-.316-2.986-.947-3.847zM134.748 27.278a5.93 5.93 0 0 1-2.305 1.576 6.924 6.924 0 0 1-2.522.48c-1.443 0-2.687-.398-3.782-1.193-1.443-1.077-2.372-2.953-2.372-4.86 0-1.194.332-2.34.962-3.368.98-1.643 3.17-3.086 5.592-3.086 1.095 0 2.124.283 3.152.846 1.925 1.062 2.953 2.855 2.953 5.178 0 1.742-.597 3.252-1.677 4.428zm-2.272-8.592c-.497-.715-1.36-1.145-2.256-1.145-.58 0-1.16.183-1.726.647-1.062.88-1.66 2.705-1.66 5.01 0 1.56.35 3.35.98 4.312.464.747 1.277 1.11 2.206 1.11.68 0 1.277-.197 1.76-.597.944-.778 1.642-2.985 1.642-5.49 0-1.724-.315-2.986-.946-3.847zM152.352 29.02h-.564c-.763 0-1.89-.017-2.77-.017-.582 0-2.107.065-2.556.065h-.43c-.052-.05-.085-.198-.085-.267 0-.06.033-.246.066-.31.332-.067.98-.282 1.277-.467-.132-.183-.414-.597-1.03-1.228l-2.67-2.788c-.132-.133-.282-.28-.364-.28-.083 0-.2.048-.232.1l.066 3.3c.018.63.266.944.597 1.145.1.065.58.183 1.112.2.048.048.1.195.1.296a.73.73 0 0 1-.067.315h-.58c-.648 0-1.96-.065-2.556-.065-.78 0-2.04.05-2.688.05h-.714c-.05-.083-.05-.23-.05-.3 0-.065.033-.215.065-.297.864-.083 1.43-.25 1.646-.432.215-.383.248-1.23.248-2.62l.016-5.292c0-.598-.016-1.162-.05-1.344-.1-.465-.282-.682-.613-.896-.165-.117-.93-.166-1.146-.2-.064-.08-.08-.198-.08-.315 0-.08.016-.263.08-.313h.317c.598 0 1.79.05 2.406.05.53 0 1.69-.017 2.554-.017h.962c.05.082.1.2.1.266s-.017.232-.033.314a9.063 9.063 0 0 0-1.146.217c-.297.266-.413.48-.53.846l-.016 4.43c.232-.232.896-.93 1.228-1.26.73-.7 1.36-1.328 1.825-1.875.714-.764 1.178-1.277 1.327-1.46a.465.465 0 0 0 .083-.282c-.017-.2-.1-.266-.28-.365-.267-.134-.864-.23-1.014-.265-.065-.084-.05-.232-.05-.316a.55.55 0 0 1 .066-.267c.645 0 1.128.05 1.608.05.182 0 1.692-.032 2.322-.032h.498c.05.02.083.2.083.267s-.03.25-.05.3c-.763.18-1.708.43-2.454 1.194l-2.854 2.888c-.066.064-.084.115-.184.23.133.15.383.43.697.73.365.35.913.946 1.643 1.657.863.85 1.527 1.526 2.008 2.04.498.53.896.965 1.427 1.46.183.185.647.5 1.427.58.033.07.084.233.084.284a.798.798 0 0 1-.082.3zM158.688 29.285c-1.046 0-1.892-.08-3.053-.664-.166-.08-.432-.23-.53-.23-.117 0-.482.23-.848.532-.23 0-.713-.166-.762-.332.033-.266.182-.863.182-1.676 0-.332-.066-1.51-.066-1.727a.66.66 0 0 1 .316-.098c.116 0 .35 0 .464.032.167.646.797 1.654 1.18 2.17.646.896 1.857 1.277 2.603 1.277.697 0 1.328-.198 1.742-.68.465-.515.664-.964.664-1.478 0-.797-.415-1.358-1.743-1.84-.3-.1-2.522-.747-3.003-.962-.714-.3-1.228-.715-1.593-1.262a3.947 3.947 0 0 1-.597-2.074c0-1.89 1.643-3.367 3.9-3.367 1.045 0 1.94.1 3.118.996.233-.217.465-.45.715-.6.248 0 .58.033.73.234-.05.297-.15 1.176-.15 1.607 0 .498.083.996.133 1.412-.1.082-.216.164-.365.164a3.11 3.11 0 0 1-.397-.033c-.365-.846-.714-1.275-1.112-1.857-.48-.713-1.26-1.195-2.207-1.195-1.062 0-2.023.83-2.023 1.727 0 .58.53 1.326.896 1.51.547.266 1.393.547 2.422.812.88.232 1.525.48 1.875.697 1.277.714 1.875 1.677 1.875 3.203 0 2.426-1.842 3.702-4.364 3.702zM179.194 29.07h-.646c-.415 0-.896-.05-1.378-.05-.78 0-1.775.05-2.156.05-.05-.033-.066-.115-.066-.2a.45.45 0 0 1 .05-.198c.796-.033 1.128-.164 1.128-.496 0-.133-.017-.398-.266-1.062-.232-.596-.365-.878-.432-1.027-.033-.05-.05-.082-.232-.082h-2.588c-.166.197-.382.775-.613 1.572-.05.2-.05.4-.05.467 0 .265.25.578 1.16.597a.52.52 0 0 1 .067.232c0 .05 0 .117-.033.182h-.217c-.614 0-.796-.03-1.427-.03-.432 0-1.443.03-1.775.03a.303.303 0 0 1-.05-.16c0-.068 0-.12.05-.22.48-.1.946-.25 1.18-.6.132-.198.563-.96 1.044-2.137.45-1.096 1.013-2.488 1.262-3.07.332-.713.447-.945.564-1.193.183-.365.365-.73.447-.863.066-.1.232-.147.315-.147.134 0 .3.082.364.164.084.15.167.316.2.414.464 1.13.846 2.144 1.442 3.554.3.712.45 1.16.78 1.908.216.463.365.81.58 1.24.315.616.813.633 1.295.747.034.066.083.116.083.202 0 .063-.032.11-.082.177zm-5.192-6.52h-.018a19.66 19.66 0 0 0-.598 1.327c-.43 1.064-.58 1.428-.663 1.578h2.456c-.184-.482-.813-1.992-1.178-2.906zM190.742 21.256c-.83.033-1.56.482-1.56 1.826l-.017 4.23c0 .165.065 1.357.065 1.822a.72.72 0 0 1-.33.136c-.052 0-.117-.052-.218-.136l-5.807-6.252.066 1.277.018 2.302c0 .185.033.615.066.93.05.518.2.697.415.882.297.248.778.332 1.11.363.033.065.05.133.05.184a.498.498 0 0 1-.067.217h-.63c-.53 0-.945-.017-1.51-.017-.364 0-.862.03-1.227.03h-.267a.8.8 0 0 1-.034-.182c0-.05 0-.115.05-.215.415-.035 1.062-.232 1.31-.564.102-.218.135-.6.135-.997v-2.95c0-.48-.017-.714-.032-1.18-.018-.38-.1-.663-.283-.894a3.81 3.81 0 0 0-.414-.433c-.182-.166-.645-.3-.93-.416a.6.6 0 0 1-.048-.18c0-.052.016-.15.05-.218h.215c.167 0 1.062.05 1.743.05h.396a.995.995 0 0 1 .267.167l4.298 4.692c.33.367.747.848.98 1.146v-3.384c0-.465-.033-.78-.05-.947-.033-.348-.116-.645-.25-.877-.132-.217-.93-.332-1.343-.416a.737.737 0 0 1-.05-.248c0-.05 0-.1.032-.184h.25c.397 0 1.043.068 1.442.068.98 0 1.293-.033 1.79-.033h.317c.032.064.048.148.048.197a.503.503 0 0 1-.046.202zM201.625 27.43c-.914 1.257-1.958 1.64-3.95 1.64-.397 0-1.094-.033-1.907-.033-1.775 0-2.107.033-2.52.033h-.2a.446.446 0 0 1 0-.414c.847-.035 1.145-.182 1.327-.48.05-.065.183-.416.183-1.178V25.09c0-1.76-.066-2.49-.083-2.722-.05-.48-.05-1.06-1.394-1.06-.016-.085-.05-.167-.05-.233s.018-.115.068-.2h.596c.3 0 .714.02.996.02.415 0 1.957-.1 2.904-.1 1.11 0 2.023.263 2.67.612 1.395.73 2.057 2.273 2.057 3.7 0 .762-.23 1.64-.695 2.322zm-2.406-5.377c-.647-.482-1.41-.746-2.44-.746-.314 0-.414.033-.63.066l-.017.115v5.74c0 .464.066.764.248.962.234.267.466.397.85.397 1.044 0 1.808-.3 2.388-.996.598-.68.912-1.507.912-2.567 0-1.343-.4-2.29-1.31-2.97zM215.312 29.285c-1.046 0-1.892-.08-3.054-.664-.165-.08-.432-.23-.53-.23-.116 0-.48.23-.847.532-.23 0-.712-.166-.763-.332.034-.266.184-.863.184-1.676 0-.332-.065-1.51-.065-1.727a.654.654 0 0 1 .315-.098c.116 0 .348 0 .465.032.166.646.796 1.654 1.178 2.17.647.896 1.858 1.277 2.604 1.277.697 0 1.327-.198 1.742-.68.464-.515.663-.964.663-1.478 0-.797-.416-1.358-1.742-1.84-.298-.1-2.52-.747-3.003-.962-.713-.3-1.228-.715-1.592-1.262a3.947 3.947 0 0 1-.598-2.074c0-1.89 1.643-3.367 3.898-3.367 1.046 0 1.94.1 3.12.996.23-.217.464-.45.713-.6.25 0 .58.033.73.234-.05.297-.15 1.176-.15 1.607 0 .498.083.996.133 1.412-.098.082-.214.164-.363.164-.05 0-.35-.016-.398-.033-.366-.846-.714-1.275-1.112-1.857-.48-.713-1.26-1.195-2.207-1.195-1.06 0-2.023.83-2.023 1.727 0 .58.53 1.326.897 1.51.547.266 1.393.547 2.422.812.88.232 1.525.48 1.875.697 1.277.714 1.876 1.677 1.876 3.203 0 2.426-1.842 3.702-4.364 3.702zM230.89 23.13c-.516.167-1.16.3-1.926.3-.58 0-1.643-.033-2.637-.1l.05 3.65c0 .497.165.777.33.978.315.365 1.063.465 1.56.53.036.066.036.197.036.3 0 .082 0 .198-.052.264h-.413c-.614 0-2.125-.064-3.602-.064-.597 0-2.156.064-2.688.064-.033-.082-.05-.098-.05-.23 0-.15.017-.266.032-.348.35-.035.714-.117.962-.168.547-.164.88-.68.945-1.178.05-.398.066-2.237.066-5.74 0-1.26-.033-1.99-.084-2.57-.102-.48-.167-.696-.447-.946-.332-.084-.847-.166-1.162-.264-.05-.084-.05-.268-.05-.334 0-.064.034-.182.084-.264.514 0 1.442.064 2.058.064.88 0 2.87-.098 4.146-.098 1.46 0 2.424.148 2.972.38 1.062.48 1.774 1.644 1.774 2.888.004 1.277-.726 2.438-1.904 2.887zm-1.428-4.544c-.332-.697-1.027-.98-2.156-.98-.48 0-.764.065-.963.083l-.016 4.858c0 .086.082.102.215.117.1.016.365.035.713.035.83 0 1.377-.168 1.728-.45.547-.48.847-1.228.847-2.073-.002-.58-.135-1.144-.368-1.59zM246.085 28.804c-.016.15-.016.184-.063.266-.167.05-.315.033-.448.033-3.353 0-4.88-.1-5.408-.1-.963 0-1.76-.033-2.174-.033-.45 0-2.406.05-2.938.05h-.55a.632.632 0 0 1-.08-.298.97.97 0 0 1 .08-.365c.665-.033 1.346-.133 1.495-.248.1-.15.33-.93.363-1.577.02-.412.032-1.427.032-2.124v-3.42c0-.764-.016-1.725-.05-2.074-.147-.795-.364-.88-.597-1.078-.23-.133-1.013-.115-1.21-.182-.05-.066-.083-.248-.083-.332 0-.066.033-.2.082-.266h.563c.433 0 1.278.033 2.272.033.68 0 2.29-.017 3.07-.017 1.44 0 1.824-.016 2.77-.016.664 0 1.295.033 1.427.033.33 0 .363.05.382.215.033.416.1 1.727.1 2.74-.132.064-.15.098-.25.098-.083 0-.247 0-.348-.033-.48-.812-.962-1.576-1.594-2.057-.248-.2-.597-.3-1.062-.332-.148 0-.597-.017-1.56-.017-.763 0-.847.018-.996.033-.017.15-.05.365-.067.564-.016.3-.05.812-.05 2.406v1.543h.35c.233 0 .665-.052.964-.134.446-.133.878-.447 1.127-.863.032-.05.216-.746.266-.98.1-.05.314-.05.433-.05a.71.71 0 0 1 .33.066c-.05.6-.166 1.74-.166 2.57 0 .665.1 1.876.1 2.323-.114.066-.197.084-.33.084s-.35-.018-.432-.066c-.033-.23-.133-1.144-.283-1.375-.165-.266-.33-.514-.746-.697a2.625 2.625 0 0 0-1.013-.232h-.613v3.634c0 .762.064.762.182 1.043.116.268.383.664.63.715.15.033.565.084 1.098.084h1.325c.614 0 .995-.033 1.243-.184.45-.266 1.262-1.293 1.826-2.57.114-.033.247-.033.363-.033.132 0 .167 0 .25.05.017.15.017.25.017.483 0 1.342 0 2.356-.035 2.686zM258.214 27.51c-.748 1.013-2.225 1.774-4.248 1.774-1.608 0-2.952-.445-3.864-1.11-1.442-1.095-2.354-2.837-2.354-4.96 0-1.99.63-3.585 1.772-4.712 1.047-1.045 2.424-1.625 4.165-1.625 1.893 0 2.754.514 3.684 1.178.23-.283.314-.498.562-.682.217.018.55.084.647.184 0 .314-.134 1.13-.134 1.625 0 .398.166 1.693.182 1.875-.065.066-.297.148-.397.148-.148 0-.298-.03-.363-.05-.267-.878-.562-1.642-.846-2.022-.68-.88-1.576-1.494-2.653-1.494-1.295 0-2.357.614-3.087 2.538-.315.715-.497 1.693-.497 2.904 0 1.275.313 2.47.53 3.02.397 1.026 1.627 2.188 3.353 2.188 1.244 0 2.338-.53 3.334-1.94.033 0 .082-.017.117-.017.38 0 .514.248.562.396-.136.283-.166.382-.466.78zM266.858 29.037h-.548c-.547 0-2.273-.05-2.52-.05-.864 0-2.522.082-3.188.082h-.282c0-.083-.03-.148-.03-.28 0-.067.016-.282.048-.352 1.21-.082 1.41-.38 1.608-.547.116-.215.2-.598.234-.993.015-.58.048-1.66.048-2.14 0-.963-.016-2.123-.033-2.955-.015-1.525-.033-2.207-.05-2.52-.065-.897-.35-1.26-.548-1.41-.114-.085-.48-.167-1.293-.233a2.064 2.064 0 0 1-.035-.315c0-.15.034-.215.083-.283h.365c.73.018 2.357.068 2.703.068.565 0 2.19-.084 2.89-.084h.48c.035.033.082.166.082.266 0 .066-.016.25-.047.316-.533.064-1.164.13-1.48.43-.114.1-.3.45-.3.896v4.082c0 1.54.02 3.185.036 3.98.115.597.298.962.563 1.277.3.065.98.134 1.227.147.034.066.05.248.05.332a.6.6 0 0 1-.062.285zM281.54 29.052c-1.077 0-2.405-.05-3.435-.05-.63 0-1.36.034-1.643.034h-1.244c-.084-.066-.1-.232-.115-.297 0-.07.016-.2.1-.303.646-.03.994-.1 1.23-.215.147-.166.23-.48.23-.812-.066-.25-.2-.648-.433-1.31a15.52 15.52 0 0 0-.38-1.013c-.067-.117-.216-.38-.35-.482-.696.016-2.557-.016-3.716.033a3.25 3.25 0 0 0-.25.613l-.63 1.94c.066.55.25.914.48 1.13.147.065.598.132 1.012.165.05.082.084.215.067.28 0 .07-.02.2-.067.3h-.446c-.6 0-1.246-.066-1.875-.066-.582 0-1.593.032-1.94.032a.51.51 0 0 1-.067-.266c.016-.066.05-.23.066-.314.714-.2 1.477-.383 1.742-.98.498-1.21.38-.895 1.178-3 .812-2.16 1.41-3.668 1.775-4.53.464-1.063.695-1.66.745-1.776.166-.447.364-.83.514-.96.1-.118.448-.233.58-.233.167 0 .848.133.946.264.032.05.1.184.148.316l.73 1.81 2.49 6.204c.313.764.462 1.11.745 1.773.13.332.33.714.43.798.083.065.946.297 1.378.364.033.064.084.216.1.28a.51.51 0 0 1-.097.27zm-6.57-6.103c-.266-.73-.83-2.142-1.145-2.888-.05-.1-.1-.217-.15-.332-.182.447-.396.945-.713 1.725-.465 1.18-.846 2.256-.912 2.488h2.01c.463 0 .927 0 1.227-.066a8.214 8.214 0 0 0-.316-.928zM294.182 28.49c-.033.465-.05.514-.35.514-.347 0-2.587.05-4.843.05-1.296 0-2.308-.017-3.354-.017-.714 0-1.892.05-2.472.05h-.334a.906.906 0 0 1-.05-.282c0-.082.033-.232.05-.297.398-.117 1.113-.283 1.528-.482.132-.232.216-.73.23-1.326 0-.283.017-.912.017-2.222 0-.533-.03-2.092-.083-4.3-.017-.845-.05-1.49-.1-1.657-.083-.25-.216-.53-.548-.68-.264-.067-.646-.052-1.045-.15-.034-.065-.052-.25-.052-.33 0-.118.033-.2.084-.267l6.256-.018c.05.035.065.2.065.283 0 .082-.017.25-.065.3-.765.032-1.71.015-1.71 1.26v1.892l.1 6.204c0 .314.3.78.53.98.332.282.73.43 1.41.43.963 0 1.277-.197 2.025-.58.928-.478 1.594-1.558 2.073-2.718.083-.033.25-.05.33-.05a.57.57 0 0 1 .333.08c.017.632.017 1.624.017 1.825.005.48-.01.996-.045 1.51zM311.634 27.51c-.746 1.013-2.22 1.774-4.248 1.774-1.607 0-2.952-.445-3.864-1.11-1.442-1.095-2.354-2.837-2.354-4.96 0-1.99.63-3.585 1.774-4.712 1.045-1.045 2.423-1.625 4.165-1.625 1.89 0 2.754.514 3.684 1.178.233-.283.313-.498.563-.682.217.018.55.084.646.184 0 .314-.132 1.13-.132 1.625 0 .398.164 1.693.182 1.875-.066.066-.3.148-.396.148-.148 0-.3-.03-.365-.05-.267-.878-.565-1.642-.85-2.022-.68-.88-1.573-1.494-2.653-1.494-1.293 0-2.355.614-3.086 2.538-.315.715-.497 1.693-.497 2.904 0 1.275.315 2.47.53 3.02.397 1.026 1.628 2.188 3.353 2.188 1.246 0 2.34-.53 3.336-1.94.033 0 .084-.017.115-.017.383 0 .516.248.562.396-.132.283-.167.382-.466.78zM324.875 27.278a5.936 5.936 0 0 1-2.307 1.576 6.93 6.93 0 0 1-2.52.48c-1.444 0-2.69-.398-3.784-1.193-1.44-1.077-2.373-2.953-2.373-4.86 0-1.194.333-2.34.964-3.368.98-1.643 3.17-3.086 5.592-3.086 1.096 0 2.125.283 3.152.846 1.926 1.062 2.95 2.855 2.95 5.178 0 1.742-.595 3.252-1.673 4.428zm-2.274-8.592c-.497-.715-1.358-1.145-2.255-1.145-.582 0-1.162.183-1.727.647-1.062.88-1.658 2.705-1.658 5.01 0 1.56.348 3.35.98 4.312.464.747 1.276 1.11 2.206 1.11.68 0 1.277-.197 1.758-.597.945-.778 1.643-2.985 1.643-5.49 0-1.724-.315-2.986-.946-3.847zM339.873 28.49c-.035.465-.05.514-.35.514-.348 0-2.588.05-4.846.05-1.293 0-2.307-.017-3.352-.017-.713 0-1.89.05-2.473.05h-.33a.855.855 0 0 1-.05-.282c0-.082.03-.232.05-.297.396-.117 1.11-.283 1.525-.482.13-.232.215-.73.23-1.326 0-.283.018-.912.018-2.222 0-.533-.033-2.092-.082-4.3-.016-.845-.05-1.49-.1-1.657-.084-.25-.217-.53-.55-.68-.263-.067-.645-.052-1.044-.15-.034-.065-.052-.25-.052-.33 0-.118.033-.2.082-.267l6.258-.018c.05.035.064.2.064.283 0 .082-.016.25-.064.3-.764.032-1.71.015-1.71 1.26v1.892l.1 6.204c0 .314.3.78.532.98.33.282.73.43 1.408.43.963 0 1.277-.197 2.025-.58.928-.478 1.592-1.558 2.072-2.718.084-.033.25-.05.334-.05.13 0 .23.017.33.08.017.632.017 1.624.017 1.825.004.48-.01.996-.044 1.51zM352.945 28.49c-.033.465-.05.514-.348.514-.35 0-2.588.05-4.846.05-1.294 0-2.306-.017-3.35-.017-.716 0-1.894.05-2.474.05h-.332a.852.852 0 0 1-.05-.282c0-.082.034-.232.05-.297.396-.117 1.11-.283 1.527-.482.132-.232.216-.73.23-1.326 0-.283.02-.912.02-2.222 0-.533-.034-2.092-.085-4.3-.018-.845-.05-1.49-.1-1.657-.082-.25-.215-.53-.547-.68-.266-.067-.648-.052-1.047-.15-.032-.065-.048-.25-.048-.33 0-.118.033-.2.084-.267l6.256-.018c.047.035.064.2.064.283 0 .082-.02.25-.064.3-.766.032-1.71.015-1.71 1.26v1.892l.1 6.204c0 .314.298.78.53.98.332.282.73.43 1.41.43.963 0 1.277-.197 2.023-.58.93-.478 1.594-1.558 2.072-2.718.082-.033.25-.05.334-.05.134 0 .23.017.33.08.02.632.02 1.624.02 1.825.006.48-.012.996-.045 1.51zM366.1 28.804c-.015.15-.015.184-.063.266-.168.05-.314.033-.447.033-3.354 0-4.88-.1-5.41-.1-.963 0-1.76-.033-2.174-.033-.447 0-2.406.05-2.936.05h-.547a.593.593 0 0 1-.086-.298c0-.102.033-.266.086-.365.66-.033 1.342-.133 1.49-.248.102-.15.332-.93.365-1.577.02-.412.033-1.427.033-2.124v-3.42c0-.764-.015-1.725-.048-2.074-.15-.795-.365-.88-.598-1.078-.232-.133-1.012-.115-1.21-.182-.052-.066-.085-.248-.085-.332 0-.066.032-.2.083-.266h.562c.432 0 1.277.033 2.273.033.68 0 2.29-.017 3.068-.017 1.443 0 1.824-.016 2.77-.016.665 0 1.296.033 1.427.033.334 0 .367.05.385.215.03.416.098 1.727.098 2.74-.133.064-.148.098-.248.098-.084 0-.25 0-.35-.033-.48-.812-.96-1.576-1.592-2.057-.25-.2-.598-.3-1.062-.332-.148 0-.598-.017-1.56-.017-.763 0-.847.018-.995.033-.02.15-.052.365-.067.564-.018.3-.05.812-.05 2.406v1.543h.35c.23 0 .66-.052.962-.134a2.02 2.02 0 0 0 1.13-.863c.032-.05.214-.746.263-.98.102-.05.316-.05.434-.05.164 0 .266.033.33.066-.05.6-.166 1.74-.166 2.57 0 .665.102 1.876.102 2.323-.115.066-.2.084-.332.084s-.348-.018-.432-.066c-.033-.23-.133-1.144-.28-1.375-.167-.266-.333-.514-.75-.697a2.622 2.622 0 0 0-1.01-.232h-.614v3.634c0 .762.066.762.182 1.043.117.268.383.664.63.715.15.033.565.084 1.1.084h1.323c.615 0 .996-.033 1.246-.184.448-.266 1.26-1.293 1.823-2.57.12-.033.25-.033.365-.033.135 0 .168 0 .25.05.018.15.018.25.018.483-.002 1.342-.002 2.356-.035 2.686zM378.228 27.51c-.746 1.013-2.223 1.774-4.246 1.774-1.61 0-2.953-.445-3.867-1.11-1.443-1.095-2.355-2.837-2.355-4.96 0-1.99.63-3.585 1.775-4.712 1.045-1.045 2.422-1.625 4.166-1.625 1.89 0 2.755.514 3.685 1.178.23-.283.312-.498.562-.682.215.018.55.084.646.184 0 .314-.133 1.13-.133 1.625 0 .398.166 1.693.182 1.875-.064.066-.3.148-.396.148-.148 0-.3-.03-.365-.05-.265-.878-.56-1.642-.845-2.022-.682-.88-1.576-1.494-2.656-1.494-1.294 0-2.355.614-3.085 2.538-.316.715-.5 1.693-.5 2.904 0 1.275.318 2.47.533 3.02.396 1.026 1.625 2.188 3.35 2.188 1.246 0 2.342-.53 3.336-1.94.033 0 .084-.017.117-.017a.55.55 0 0 1 .565.396c-.135.283-.168.382-.467.78zM392.328 20.824c-.1 0-.184 0-.283-.03-.3-.782-.596-1.43-.877-1.812-.45-.596-.947-.98-1.977-1.26-.497-.018-1.01 0-1.243 0 0 2.87-.018 3.916-.018 5.46 0 1.192.017 1.874.032 3.664 0 .58.1 1.062.148 1.243.465.348 1.527.315 1.71.315.05.082.065.2.065.297 0 .084 0 .266-.05.348h-.466c-1.013 0-2.554-.05-3.036-.05-.598 0-2.04.067-2.654.067h-.646c-.018-.066-.018-.2-.018-.266 0-.132 0-.263.05-.38 1.99-.082 1.91-.432 1.976-.896.033-.264.05-1.357.05-3.798 0-2.82 0-3.336-.017-4.53a43.63 43.63 0 0 0-.05-1.46c-.267 0-1.228.016-1.728.066-.88.45-1.576 1.262-2.322 2.77-.064.034-.3.034-.363.034a.5.5 0 0 1-.268-.066v-3.17c0-.23.068-.28.283-.28h1.23c.93 0 2.62.032 4.68.032 2.65 0 5.257-.066 5.755-.066.25 0 .348.066.348.314v3.387c-.03.036-.248.067-.312.067zM400.656 29.037h-.547c-.55 0-2.276-.05-2.524-.05-.863 0-2.52.082-3.186.082h-.283c0-.083-.033-.148-.033-.28 0-.067.018-.282.05-.352 1.212-.082 1.41-.38 1.61-.547.115-.215.2-.598.23-.993.018-.58.053-1.66.053-2.14 0-.963-.018-2.123-.035-2.955-.018-1.525-.03-2.207-.05-2.52-.065-.897-.35-1.26-.548-1.41-.113-.085-.48-.167-1.293-.233a2.03 2.03 0 0 1-.03-.315c0-.15.03-.215.082-.283h.365c.73.018 2.354.068 2.703.068.564 0 2.19-.084 2.89-.084h.478a.503.503 0 0 1 .082.266c0 .066-.016.25-.05.316-.53.064-1.16.13-1.476.43-.117.1-.3.45-.3.896v4.082c0 1.54.02 3.185.034 3.98.115.597.297.962.562 1.277.3.065.98.134 1.23.147.032.066.048.248.048.332a.61.61 0 0 1-.062.285zM413.462 27.278a5.922 5.922 0 0 1-2.307 1.576 6.923 6.923 0 0 1-2.52.48c-1.442 0-2.69-.398-3.784-1.193-1.442-1.077-2.372-2.953-2.372-4.86 0-1.194.332-2.34.965-3.368.98-1.643 3.166-3.086 5.59-3.086 1.096 0 2.123.283 3.152.846 1.926 1.062 2.953 2.855 2.953 5.178.002 1.742-.596 3.252-1.676 4.428zm-2.27-8.592c-.5-.715-1.362-1.145-2.26-1.145-.58 0-1.16.183-1.726.647-1.06.88-1.658 2.705-1.658 5.01 0 1.56.35 3.35.98 4.312.464.747 1.276 1.11 2.206 1.11.68 0 1.275-.197 1.758-.597.947-.778 1.643-2.985 1.643-5.49 0-1.724-.315-2.986-.944-3.847zM430.517 17.572c-1.143.05-2.123.633-2.123 2.705v6.917c0 .25.018.746.018 1.23 0 .396-.115.663-.148.745-.066.034-.115.034-.197.034-.084 0-.385-.02-.467-.103l-7.666-8.607c-.082-.102-.197-.25-.297-.365-.018.58-.033 1.725-.033 3.035 0 .98.016 1.71.016 2.24 0 .58.1 1.81.217 2.057.562.748 1.41.88 1.99 1.03a.74.74 0 0 1 .05.265c0 .065-.017.266-.08.28h-.997c-.682 0-1.18-.05-1.908-.05-.498 0-1.262.05-1.594.05h-.314c-.033-.016-.05-.182-.05-.23 0-.083.034-.216.065-.298.862-.217 1.394-.482 1.743-.848.05-.282.1-.715.1-1.264V23.03c0-1.16.05-2.37.05-3.234 0-.232-.02-.416-.067-.53-.148-.333-.613-.747-.88-1.046-.448-.482-.995-.564-1.243-.63a2.22 2.22 0 0 1-.05-.317c0-.064.032-.164.065-.232.28 0 2.207.052 3.27.052.133 0 .365.018.498.018.098.064.197.148.248.215l5.54 6.14c.665.745 1.063 1.31 1.347 1.66.017-.183.034-.316.034-.715v-3.467c0-.682-.018-.93-.033-1.178-.05-.648-.183-1.344-.48-1.693-.433-.283-1.442-.398-1.71-.48-.066-.066-.082-.2-.082-.283 0-.067.016-.25.064-.282h.432c.186 0 .947.033 1.46.033 1.495 0 2.024-.032 2.856-.032h.38a.53.53 0 0 1 .05.232c-.007.08-.022.23-.073.312zM437.437 29.285c-1.045 0-1.893-.08-3.055-.664-.164-.08-.43-.23-.53-.23-.116 0-.48.23-.847.532-.23 0-.713-.166-.762-.332.033-.266.182-.863.182-1.676 0-.332-.064-1.51-.064-1.727a.647.647 0 0 1 .313-.098c.117 0 .35 0 .465.032.166.646.797 1.654 1.18 2.17.646.896 1.857 1.277 2.604 1.277.697 0 1.326-.198 1.742-.68.465-.515.664-.964.664-1.478 0-.797-.416-1.358-1.742-1.84-.3-.1-2.52-.747-3.002-.962-.715-.3-1.23-.715-1.594-1.262a3.947 3.947 0 0 1-.598-2.074c0-1.89 1.643-3.367 3.898-3.367 1.045 0 1.94.1 3.12.996.23-.217.462-.45.712-.6.248 0 .58.033.73.234-.05.297-.15 1.176-.15 1.607 0 .498.084.996.133 1.412-.1.082-.215.164-.365.164-.05 0-.348-.016-.395-.033-.367-.846-.715-1.275-1.113-1.857-.48-.713-1.262-1.195-2.207-1.195-1.06 0-2.02.83-2.02 1.727 0 .58.528 1.326.894 1.51.546.266 1.394.547 2.42.812.882.232 1.528.48 1.876.697 1.277.714 1.875 1.677 1.875 3.203 0 2.426-1.842 3.702-4.363 3.702z"/></svg>