<svg xmlns="http://www.w3.org/2000/svg" width="441.8" height="48.968" viewBox="0 0 441.8 48.968"><path fill="#F58025" d="M0 0v48.968h.046l14.067-7.18 14.303 7.088-.108.092h.135V0z"/><g fill="#FFF"><path d="M23.252 17.564v-.086h-.02c-.154-.564-.693-.982-1.338-.982v.982h-.004l.035 14.216s-2.004-.646-3.814-1.434c-2.09-.91-3.763.08-3.916.176v.01l-.007-.006a.08.08 0 0 1-.008.006v-.01c-.154-.096-1.826-1.086-3.918-.176-1.81.787-3.813 1.434-3.813 1.434l.032-14.216h-.006V16.42c-.638 0-1.167.456-1.284 1.058h-.025v15.577h18.085V18.05a1.227 1.227 0 0 0 0-.486z"/><path d="M9.716 25.516c.418.746.9 1.46 1.435 2.138l3.067-2.985 3.078 2.99c.53-.668 1.008-1.38 1.432-2.132l-4.51-4.338-4.5 4.326zM20.722 16.344c-.528.16-1.09.248-1.673.248-2.06 0-3.858-1.082-4.827-2.69a5.624 5.624 0 0 1-4.827 2.69c-.58 0-1.144-.088-1.67-.246-.138 1.57-.04 3.12.272 4.61h12.44c.324-1.554.414-3.104.284-4.612"/></g><path d="M47.106 29.052h-2.374c-.63 0-1.51-.03-1.64-.05-.317-.032-.45-.33-.5-.68-.166-1.21-.515-2.736-1.045-3.564-.398-.615-.697-.863-1.31-1.21-.416-.233-.664-.27-.88-.27-.134 0-.3 0-.432.02l.017 3.83c0 .58.3.98.713 1.178.183.035.598.133.93.168.032.066.066.23.066.348a.704.704 0 0 1-.065.248c-.946 0-1.842-.05-2.904-.05-.53 0-3.068.05-3.3.05a1.047 1.047 0 0 1-.066-.266.82.82 0 0 1 .082-.33c.333-.018.73-.084.946-.117.48-.2.63-.697.68-1.11.083-.632.066-2.588.066-4.28 0-2.34-.017-3.7-.1-4.23-.165-.366-.298-.6-.696-.897a19.13 19.13 0 0 0-1.062-.148c-.016-.066-.033-.232-.033-.3s.033-.198.084-.315c.1 0 .73.035.98.035.58 0 2.023.033 2.273.033.828 0 2.57-.117 3.815-.117.88 0 1.593.066 1.99.184 1.212.38 2.075 1.674 2.075 3.018 0 .896-.365 1.66-1.03 2.158-.313.25-.596.465-1.823.613-.316.034-.433.052-.68.1.197.085.414.167.68.267.58.2 1.094.414 1.244.55.398.364.88 1.144 1.227 1.972.25.63.5 1.143.715 1.906.067.117.2.316.282.416.25.182.93.215 1.096.215.05.066.082.264.082.348s-.033.212-.1.277zm-5.094-10.484c-.464-.78-1.028-.896-2.322-.896-.348 0-.646.05-.697.1-.05.05-.1.166-.1.365v3.053l.018 1.41c.2.035.448.035.614.035.614 0 1.03-.05 1.36-.135.813-.2 1.51-1.377 1.51-2.406 0-.563-.117-1.078-.382-1.526zM61.406 29.052c-1.078 0-2.404-.05-3.434-.05-.63 0-1.36.034-1.643.034h-1.245c-.083-.066-.1-.232-.116-.297a.5.5 0 0 1 .098-.302c.647-.03.996-.098 1.23-.215.147-.166.23-.48.23-.812-.065-.25-.198-.647-.43-1.31a15.47 15.47 0 0 0-.383-1.01c-.066-.118-.216-.382-.35-.483-.695.016-2.554-.016-3.716.033a3.46 3.46 0 0 0-.25.613l-.63 1.94c.066.55.25.914.48 1.13.15.065.6.132 1.014.165.05.082.082.215.066.28a.78.78 0 0 1-.066.3h-.45c-.596 0-1.243-.066-1.872-.066-.582 0-1.594.033-1.94.033a.51.51 0 0 1-.068-.266c.017-.067.05-.23.067-.315.714-.2 1.477-.383 1.74-.98.5-1.21.384-.895 1.18-3 .813-2.16 1.41-3.668 1.775-4.53.464-1.063.696-1.66.747-1.776.166-.448.365-.83.514-.962.1-.117.448-.232.58-.232.167 0 .848.133.947.264.032.05.1.184.148.316l.73 1.81 2.49 6.204c.314.764.464 1.11.745 1.774.134.332.332.713.432.797.083.067.946.298 1.377.366.033.064.084.215.1.28a.486.486 0 0 1-.098.266zm-6.57-6.103c-.265-.73-.83-2.142-1.145-2.888-.048-.1-.1-.217-.147-.332-.183.447-.398.945-.714 1.725-.465 1.18-.848 2.256-.914 2.488h2.008c.465 0 .93 0 1.23-.066a8.02 8.02 0 0 0-.317-.928zM75.476 29.052h-2.372c-.63 0-1.51-.03-1.643-.05-.315-.032-.448-.33-.497-.68-.166-1.21-.515-2.736-1.045-3.564-.398-.615-.697-.863-1.31-1.21-.417-.233-.665-.27-.882-.27-.132 0-.298 0-.43.02l.016 3.83c0 .58.3.98.713 1.178.184.035.598.133.93.168.033.066.066.23.066.348a.683.683 0 0 1-.065.248c-.946 0-1.842-.05-2.903-.05-.53 0-3.07.05-3.302.05a1.013 1.013 0 0 1-.066-.266c0-.082.033-.248.083-.33.332-.018.73-.084.946-.117.48-.2.63-.697.68-1.11.083-.632.066-2.588.066-4.28 0-2.34-.02-3.7-.1-4.23-.167-.366-.3-.6-.698-.897a19.13 19.13 0 0 0-1.062-.148c-.017-.066-.032-.232-.032-.3s.032-.198.082-.315c.1 0 .73.035.98.035.58 0 2.024.033 2.272.033.83 0 2.572-.117 3.816-.117.88 0 1.592.066 1.99.184 1.212.38 2.074 1.674 2.074 3.018 0 .896-.365 1.66-1.03 2.158-.313.25-.595.465-1.823.613a6.13 6.13 0 0 0-.68.1c.197.085.413.167.68.267.58.2 1.094.414 1.243.55.398.364.88 1.144 1.228 1.972.25.63.5 1.143.715 1.906.066.117.2.316.282.416.25.182.93.215 1.095.215.05.066.083.264.083.348s-.033.212-.1.277zm-5.093-10.484c-.465-.78-1.03-.896-2.324-.896-.35 0-.647.05-.698.1-.05.05-.1.166-.1.365v3.053l.018 1.41c.2.035.447.035.614.035.614 0 1.028-.05 1.36-.135.812-.2 1.51-1.377 1.51-2.406 0-.563-.118-1.078-.38-1.526zM88.367 28.804c-.018.15-.018.184-.067.266-.165.05-.314.033-.447.033-3.353 0-4.878-.1-5.41-.1-.962 0-1.76-.033-2.173-.033-.448 0-2.406.05-2.937.05h-.548a.632.632 0 0 1-.082-.298.97.97 0 0 1 .082-.365c.664-.033 1.344-.133 1.494-.248.1-.15.33-.93.364-1.577a73.44 73.44 0 0 0 .032-2.124v-3.42c0-.764-.017-1.725-.05-2.074-.15-.795-.365-.88-.598-1.078-.23-.133-1.012-.115-1.21-.182-.05-.066-.083-.248-.083-.332 0-.066.032-.2.082-.266h.564c.432 0 1.278.033 2.274.033.68 0 2.29-.017 3.07-.017 1.44 0 1.824-.016 2.77-.016.664 0 1.294.033 1.428.033.33 0 .364.05.38.215.034.416.1 1.727.1 2.74-.132.064-.148.098-.25.098-.08 0-.247 0-.347-.033-.48-.812-.963-1.576-1.593-2.057-.25-.2-.597-.3-1.062-.332-.15 0-.598-.017-1.56-.017-.765 0-.847.018-.995.033-.018.15-.05.365-.066.564-.02.3-.052.812-.052 2.406v1.543h.348c.233 0 .665-.052.963-.134.447-.133.878-.447 1.128-.863.033-.05.216-.746.266-.98.1-.05.314-.05.432-.05.165 0 .265.033.332.066-.05.6-.167 1.74-.167 2.57 0 .665.1 1.876.1 2.323a.585.585 0 0 1-.33.084c-.133 0-.35-.018-.432-.066-.033-.23-.133-1.144-.28-1.376-.17-.266-.333-.514-.75-.697a2.622 2.622 0 0 0-1.01-.232h-.614v3.634c0 .76.066.76.183 1.042.116.268.38.664.63.715.148.033.563.084 1.096.084H84.7c.614 0 .995-.032 1.243-.183.448-.266 1.262-1.293 1.826-2.57.114-.034.247-.034.364-.034.133 0 .165 0 .248.05.017.15.017.25.017.483 0 1.344 0 2.358-.033 2.688zM105.853 28.274c-.747.695-1.66.812-2.854.795l-5.01-.067c-.45 0-1.893.033-2.358.033-.314 0-.613 0-.68-.016-.032-.066-.05-.232-.05-.3s.018-.214.083-.33c.963 0 1.693-.183 1.76-.433.1-.348.2-.93.248-1.46.018-.447.05-1.79.05-3.334 0-1.393-.083-3.717-.1-3.883a5.27 5.27 0 0 0-.1-.746c-.083-.314-.314-.68-.78-.748-.397-.05-.928-.115-1.178-.148a1.095 1.095 0 0 1-.05-.3c0-.1.017-.18.066-.265.084-.016.268-.016.4-.016h3.932c1.013 0 2.156-.05 2.838-.05.912 0 1.725.116 2.205.35 1.112.513 1.61 1.427 1.61 2.704 0 1.046-.398 1.81-1.095 2.124-.217.1-.83.266-1.13.348-.082.016-.298.066-.298.133 0 .1.283.115.48.15.267.05 1.014.2 1.212.28.3.118.995.583 1.312 1.18.28.497.432 1.062.432 1.692 0 .946-.33 1.725-.945 2.307zm-2.306-3.797c-.48-.863-.98-1.08-1.96-1.295a5.14 5.14 0 0 0-1.11-.117c-.348 0-.63.018-.68.082 0 .035-.018.234-.018.564v2.938c0 .48.017.598.05.797.166.365.48.68.83.912.133.033.514.05.696.05.98 0 1.327-.183 1.81-.663.43-.465.662-1.145.662-2.106 0-.45-.1-.847-.28-1.16zm-.846-5.81c-.266-.497-.647-.778-1.16-.895-.233-.066-.565-.1-.946-.1-.217 0-.482.018-.73.018-.018.516-.05 2.57-.05 2.57v1.31c0 .466.017.782.05.815.017.033.23.033.48.033.68 0 1.76-.184 1.958-.348.083-.066.183-.166.282-.35.3-.498.447-1.045.447-1.627 0-.513-.114-1.01-.33-1.425zM120.133 27.278a5.943 5.943 0 0 1-2.306 1.576 6.912 6.912 0 0 1-2.522.48c-1.443 0-2.688-.398-3.783-1.193-1.443-1.077-2.372-2.953-2.372-4.86 0-1.194.332-2.34.962-3.368.98-1.643 3.17-3.086 5.592-3.086 1.095 0 2.124.283 3.152.846 1.924 1.062 2.953 2.855 2.953 5.178 0 1.742-.6 3.252-1.677 4.428zm-2.274-8.592c-.498-.715-1.36-1.145-2.257-1.145-.582 0-1.162.183-1.727.647-1.06.88-1.658 2.705-1.658 5.01 0 1.56.348 3.35.98 4.312.464.747 1.276 1.11 2.206 1.11.68 0 1.278-.197 1.76-.596.945-.78 1.642-2.985 1.642-5.49 0-1.725-.316-2.987-.947-3.848zM134.748 27.278a5.94 5.94 0 0 1-2.305 1.576 6.904 6.904 0 0 1-2.522.48c-1.443 0-2.687-.398-3.782-1.193-1.443-1.077-2.372-2.953-2.372-4.86 0-1.194.332-2.34.962-3.368.98-1.643 3.17-3.086 5.592-3.086 1.095 0 2.124.283 3.152.846 1.925 1.062 2.953 2.855 2.953 5.178 0 1.742-.597 3.252-1.677 4.428zm-2.272-8.592c-.497-.715-1.36-1.145-2.256-1.145-.58 0-1.16.183-1.726.647-1.062.88-1.66 2.705-1.66 5.01 0 1.56.35 3.35.98 4.312.464.747 1.277 1.11 2.206 1.11.68 0 1.277-.197 1.76-.596.944-.78 1.642-2.985 1.642-5.49 0-1.725-.315-2.987-.946-3.848zM152.352 29.02h-.564c-.763 0-1.89-.017-2.77-.017-.582 0-2.107.066-2.556.066h-.43c-.052-.05-.085-.2-.085-.267 0-.064.033-.248.066-.314.332-.067.98-.282 1.277-.466-.132-.182-.414-.596-1.03-1.227l-2.67-2.788c-.132-.134-.282-.282-.364-.282-.083 0-.2.05-.232.1l.066 3.3c.018.63.266.945.597 1.146.1.066.58.182 1.112.2.048.048.1.196.1.296a.733.733 0 0 1-.067.316h-.58c-.648 0-1.96-.066-2.556-.066-.78 0-2.04.05-2.688.05h-.714c-.05-.083-.05-.23-.05-.3 0-.066.033-.215.065-.297.864-.084 1.43-.25 1.646-.432.215-.382.248-1.228.248-2.62l.016-5.292c0-.598-.016-1.162-.05-1.344-.1-.465-.282-.682-.613-.896-.165-.117-.93-.166-1.146-.2-.064-.08-.08-.198-.08-.315 0-.082.016-.264.08-.314h.317c.598 0 1.79.05 2.406.05.53 0 1.69-.018 2.554-.018h.962c.05.082.1.2.1.266s-.017.232-.033.314a9.063 9.063 0 0 0-1.146.217c-.297.265-.413.48-.53.845l-.016 4.43c.232-.232.896-.93 1.228-1.26.73-.7 1.36-1.328 1.825-1.875.714-.764 1.178-1.277 1.327-1.46a.465.465 0 0 0 .083-.282c-.017-.2-.1-.266-.28-.365-.267-.135-.864-.232-1.014-.266-.065-.084-.05-.232-.05-.316a.55.55 0 0 1 .066-.265c.645 0 1.128.05 1.608.05.182 0 1.692-.032 2.322-.032h.498c.05.018.083.2.083.266s-.03.25-.05.298c-.763.182-1.708.43-2.454 1.195l-2.854 2.887c-.066.064-.084.115-.184.23.133.15.383.432.697.732.365.348.913.945 1.643 1.656a72.054 72.054 0 0 1 2.008 2.04c.498.53.896.965 1.427 1.46.183.185.647.5 1.427.58.033.07.084.233.084.284a.8.8 0 0 1-.082.3zM158.688 29.284c-1.046 0-1.892-.08-3.053-.664-.166-.08-.432-.23-.53-.23-.117 0-.482.23-.848.53-.23 0-.713-.165-.762-.33.033-.267.182-.864.182-1.677 0-.332-.066-1.51-.066-1.726a.66.66 0 0 1 .316-.098c.116 0 .35 0 .464.032.167.646.797 1.655 1.18 2.17.646.897 1.857 1.278 2.603 1.278.697 0 1.328-.197 1.742-.68.465-.514.664-.963.664-1.477 0-.796-.415-1.358-1.743-1.84-.3-.1-2.522-.747-3.003-.962-.714-.298-1.228-.714-1.593-1.26a3.947 3.947 0 0 1-.597-2.075c0-1.89 1.643-3.367 3.9-3.367 1.045 0 1.94.1 3.118.996.233-.217.465-.45.715-.6.248 0 .58.033.73.234-.05.297-.15 1.176-.15 1.607 0 .498.083.996.133 1.412-.1.082-.216.164-.365.164a3.11 3.11 0 0 1-.397-.032c-.365-.846-.714-1.275-1.112-1.857-.48-.712-1.26-1.194-2.207-1.194-1.062 0-2.023.83-2.023 1.727 0 .58.53 1.326.896 1.51.547.266 1.393.547 2.422.812.88.232 1.525.48 1.875.697 1.277.713 1.875 1.676 1.875 3.2 0 2.427-1.842 3.702-4.364 3.702zM179.194 29.07h-.646c-.415 0-.896-.05-1.378-.05-.78 0-1.775.05-2.156.05-.05-.034-.066-.116-.066-.2a.45.45 0 0 1 .05-.2c.796-.032 1.128-.163 1.128-.495 0-.133-.017-.398-.266-1.062-.232-.596-.365-.878-.432-1.028-.033-.05-.05-.082-.232-.082h-2.588c-.166.197-.382.776-.613 1.573-.05.2-.05.4-.05.467 0 .264.25.578 1.16.596.05.1.067.165.067.23 0 .052 0 .118-.033.183h-.217c-.614 0-.796-.03-1.427-.03-.432 0-1.443.03-1.775.03-.032-.064-.05-.098-.05-.162 0-.067 0-.118.05-.218.48-.1.946-.248 1.18-.598.132-.2.563-.96 1.044-2.138.45-1.096 1.013-2.488 1.262-3.07.332-.713.447-.945.564-1.193.183-.365.365-.73.447-.863.066-.1.232-.148.315-.148.134 0 .3.082.364.164.084.15.167.316.2.414.464 1.13.846 2.143 1.442 3.553.3.713.45 1.16.78 1.907.216.463.365.81.58 1.242.315.615.813.63 1.295.746.034.068.083.117.083.203 0 .064-.032.113-.082.18zm-5.192-6.52h-.018a19.66 19.66 0 0 0-.598 1.327c-.43 1.064-.58 1.428-.663 1.578h2.456c-.184-.482-.813-1.992-1.178-2.906zM190.742 21.256c-.83.033-1.56.482-1.56 1.826l-.017 4.23c0 .165.065 1.358.065 1.823a.715.715 0 0 1-.33.135c-.052 0-.117-.05-.218-.135l-5.807-6.253.066 1.277.018 2.303c0 .184.033.615.066.93.05.516.2.697.415.88.297.25.778.333 1.11.364.033.066.05.133.05.184a.495.495 0 0 1-.067.216h-.63c-.53 0-.945-.016-1.51-.016-.364 0-.862.03-1.227.03h-.267a.81.81 0 0 1-.034-.18c0-.05 0-.116.05-.216.415-.035 1.062-.232 1.31-.564.102-.217.135-.598.135-.996v-2.952c0-.48-.017-.713-.032-1.178-.018-.38-.1-.664-.283-.895a3.81 3.81 0 0 0-.414-.433c-.182-.166-.645-.3-.93-.416a.6.6 0 0 1-.048-.18c0-.052.016-.15.05-.218h.215c.167 0 1.062.05 1.743.05h.396a.995.995 0 0 1 .267.167l4.298 4.692c.33.367.747.847.98 1.146v-3.384c0-.465-.033-.78-.05-.947-.033-.348-.116-.645-.25-.877-.132-.217-.93-.332-1.343-.416a.737.737 0 0 1-.05-.248c0-.05 0-.1.032-.184h.25c.397 0 1.043.068 1.442.068.98 0 1.293-.033 1.79-.033h.317c.032.064.048.148.048.197a.503.503 0 0 1-.046.202zM201.625 27.43c-.914 1.257-1.958 1.64-3.95 1.64-.397 0-1.094-.033-1.907-.033-1.775 0-2.107.033-2.52.033h-.2a.446.446 0 0 1 0-.414c.847-.035 1.145-.182 1.327-.48.05-.066.183-.416.183-1.178V25.09c0-1.76-.066-2.49-.083-2.723-.05-.48-.05-1.06-1.394-1.06-.016-.085-.05-.167-.05-.233s.018-.115.068-.2h.596c.3 0 .714.02.996.02.415 0 1.957-.1 2.904-.1 1.11 0 2.023.263 2.67.612 1.395.73 2.057 2.273 2.057 3.7 0 .763-.23 1.64-.695 2.323zm-2.406-5.377c-.647-.482-1.41-.746-2.44-.746-.314 0-.414.033-.63.066l-.017.115v5.74c0 .464.066.763.248.962.234.266.466.398.85.398 1.044 0 1.808-.3 2.388-.996.598-.68.912-1.51.912-2.57 0-1.342-.4-2.29-1.31-2.97zM215.312 29.284c-1.046 0-1.892-.08-3.054-.664-.165-.08-.432-.23-.53-.23-.116 0-.48.23-.847.53-.23 0-.712-.165-.763-.33.034-.267.184-.864.184-1.677 0-.332-.065-1.51-.065-1.726a.654.654 0 0 1 .315-.098c.116 0 .348 0 .465.032.166.646.796 1.655 1.178 2.17.647.897 1.858 1.278 2.604 1.278.697 0 1.327-.197 1.742-.68.464-.514.663-.963.663-1.477 0-.796-.416-1.358-1.742-1.84-.298-.1-2.52-.747-3.003-.962-.713-.298-1.228-.714-1.592-1.26a3.947 3.947 0 0 1-.598-2.075c0-1.89 1.643-3.367 3.898-3.367 1.046 0 1.94.1 3.12.996.23-.217.464-.45.713-.6.25 0 .58.033.73.234-.05.297-.15 1.176-.15 1.607 0 .498.083.996.133 1.412-.098.082-.214.164-.363.164-.05 0-.35-.015-.398-.032-.366-.846-.714-1.275-1.112-1.857-.48-.712-1.26-1.194-2.207-1.194-1.06 0-2.023.83-2.023 1.727 0 .58.53 1.326.897 1.51.547.266 1.393.547 2.422.812.88.232 1.525.48 1.875.697 1.277.713 1.876 1.676 1.876 3.2 0 2.427-1.842 3.702-4.364 3.702zM230.89 23.13c-.515.167-1.16.3-1.925.3-.58 0-1.643-.033-2.638-.1l.05 3.65c0 .497.166.778.332.978.313.365 1.06.465 1.558.53.035.067.035.198.035.3 0 .082 0 .2-.05.264h-.415c-.615 0-2.125-.064-3.602-.064-.597 0-2.156.064-2.688.064-.033-.082-.05-.098-.05-.23 0-.15.017-.266.033-.348.35-.035.715-.117.963-.168.547-.164.88-.68.946-1.178.048-.398.065-2.237.065-5.74 0-1.26-.033-1.99-.083-2.57-.1-.48-.166-.696-.447-.946-.332-.084-.847-.166-1.162-.264-.05-.084-.05-.268-.05-.334 0-.064.033-.182.083-.264.514 0 1.443.064 2.058.064.88 0 2.87-.098 4.147-.098 1.46 0 2.424.148 2.972.38 1.06.48 1.774 1.644 1.774 2.888.002 1.277-.728 2.438-1.906 2.887zm-1.427-4.544c-.332-.697-1.028-.98-2.157-.98-.48 0-.763.065-.962.083l-.017 4.858c0 .086.083.102.216.117.1.016.365.035.713.035.83 0 1.377-.168 1.727-.45.547-.48.846-1.228.846-2.073-.002-.58-.135-1.144-.367-1.59zM246.086 28.804c-.016.15-.016.184-.064.266-.167.05-.316.033-.45.033-3.35 0-4.877-.1-5.407-.1-.963 0-1.76-.033-2.174-.033-.447 0-2.405.05-2.936.05h-.548a.632.632 0 0 1-.082-.298.97.97 0 0 1 .082-.365c.664-.033 1.344-.133 1.494-.248.1-.15.33-.93.364-1.577a66.85 66.85 0 0 0 .032-2.124v-3.42c0-.764-.015-1.725-.05-2.074-.148-.795-.364-.88-.596-1.078-.23-.133-1.013-.115-1.21-.182-.05-.066-.084-.248-.084-.332 0-.066.033-.2.083-.266h.562c.432 0 1.278.033 2.273.033.68 0 2.29-.017 3.07-.017 1.44 0 1.824-.016 2.77-.016.664 0 1.294.033 1.426.033.333 0 .366.05.384.215.033.416.1 1.727.1 2.74-.133.064-.15.098-.25.098-.083 0-.248 0-.348-.033-.482-.812-.962-1.576-1.594-2.057-.248-.2-.596-.3-1.06-.332-.15 0-.598-.017-1.56-.017-.764 0-.848.018-.997.033-.017.15-.05.365-.067.564-.016.3-.05.812-.05 2.406v1.543h.35c.233 0 .664-.052.963-.134.448-.133.88-.447 1.13-.863.032-.05.215-.746.265-.98.1-.05.314-.05.432-.05.165 0 .265.033.33.066-.048.6-.165 1.74-.165 2.57 0 .665.1 1.876.1 2.323-.115.066-.198.084-.33.084s-.35-.018-.433-.066c-.034-.23-.134-1.144-.284-1.376-.165-.266-.33-.514-.746-.697a2.625 2.625 0 0 0-1.012-.232h-.613v3.634c0 .76.064.76.182 1.042.116.268.382.664.63.715.15.033.565.084 1.097.084h1.326c.615 0 .996-.032 1.244-.183.45-.266 1.262-1.293 1.825-2.57.115-.034.248-.034.364-.034.132 0 .167 0 .25.05.016.15.016.25.016.483 0 1.344 0 2.358-.034 2.688zM258.215 27.51c-.748 1.013-2.225 1.774-4.248 1.774-1.61 0-2.953-.445-3.865-1.11-1.443-1.095-2.355-2.836-2.355-4.96 0-1.99.63-3.585 1.773-4.712 1.047-1.045 2.424-1.625 4.165-1.625 1.892 0 2.754.514 3.684 1.178.23-.283.314-.498.562-.682.217.018.55.084.648.184 0 .314-.133 1.13-.133 1.625 0 .398.166 1.693.182 1.875-.067.066-.3.148-.4.148-.148 0-.298-.03-.364-.05-.266-.878-.562-1.642-.845-2.022-.68-.88-1.576-1.494-2.654-1.494-1.294 0-2.356.614-3.086 2.538-.315.715-.498 1.693-.498 2.904 0 1.275.314 2.47.53 3.02.4 1.026 1.628 2.188 3.353 2.188 1.244 0 2.34-.53 3.335-1.94.033 0 .082-.016.116-.016.38 0 .514.247.562.396-.133.283-.164.382-.463.78zM266.858 29.036h-.548c-.547 0-2.273-.05-2.522-.05-.862 0-2.52.083-3.186.083h-.282c0-.083-.032-.15-.032-.282 0-.066.017-.28.05-.35 1.21-.082 1.41-.38 1.608-.547.116-.214.2-.597.234-.993.015-.58.048-1.66.048-2.14 0-.963-.016-2.123-.033-2.955-.015-1.525-.033-2.207-.05-2.52-.066-.896-.35-1.26-.548-1.41-.114-.085-.48-.167-1.293-.233a2.2 2.2 0 0 1-.035-.315c0-.15.034-.215.083-.283h.365c.73.018 2.357.068 2.704.068.564 0 2.19-.084 2.888-.084h.48c.035.033.082.166.082.266 0 .066-.015.25-.047.316-.533.064-1.164.13-1.48.43-.114.1-.298.45-.298.896v4.082c0 1.54.017 3.184.034 3.98.116.597.3.962.564 1.278.3.066.98.133 1.227.148.035.066.052.248.052.332a.607.607 0 0 1-.064.282zM281.54 29.052c-1.077 0-2.405-.05-3.435-.05-.63 0-1.36.034-1.643.034h-1.244c-.083-.066-.1-.232-.115-.297 0-.07.016-.2.1-.302.646-.03.994-.098 1.228-.215.15-.166.232-.48.232-.812-.066-.25-.2-.647-.432-1.31a14.96 14.96 0 0 0-.38-1.01c-.067-.118-.216-.382-.35-.483-.696.016-2.556-.016-3.716.033a3.39 3.39 0 0 0-.25.613l-.63 1.94c.067.55.25.914.48 1.13.15.065.6.132 1.013.165.05.082.084.215.067.28 0 .07-.02.2-.067.3h-.447c-.598 0-1.245-.066-1.875-.066-.582 0-1.592.033-1.94.033a.51.51 0 0 1-.067-.266c.016-.067.05-.23.066-.315.714-.2 1.477-.383 1.742-.98.498-1.21.382-.895 1.178-3 .812-2.16 1.41-3.668 1.775-4.53.465-1.063.696-1.66.746-1.776.165-.448.364-.83.513-.962.1-.117.448-.232.58-.232.167 0 .848.133.946.264.033.05.1.184.15.316l.728 1.81 2.49 6.204c.314.764.463 1.11.746 1.774.132.332.332.713.43.797.084.067.947.298 1.378.366.034.064.084.215.1.28a.495.495 0 0 1-.098.266zm-6.57-6.103c-.265-.73-.83-2.142-1.144-2.888-.05-.1-.1-.217-.15-.332-.183.447-.397.945-.713 1.725-.465 1.18-.846 2.256-.912 2.488h2.01c.463 0 .927 0 1.226-.066a8.01 8.01 0 0 0-.315-.928zM294.182 28.49c-.033.464-.05.513-.35.513-.346 0-2.586.05-4.842.05-1.295 0-2.307-.017-3.353-.017-.714 0-1.892.05-2.472.05h-.333a.88.88 0 0 1-.05-.282c0-.082.033-.232.05-.297.398-.117 1.113-.283 1.528-.482.13-.232.215-.73.23-1.326 0-.284.017-.914.017-2.223 0-.533-.032-2.092-.083-4.3-.016-.845-.05-1.49-.1-1.657-.082-.25-.215-.53-.547-.682-.264-.066-.647-.05-1.046-.148a1.11 1.11 0 0 1-.05-.332c0-.117.034-.2.085-.266l6.255-.018c.05.035.066.2.066.283 0 .082-.017.25-.066.3-.764.032-1.71.015-1.71 1.26v1.892l.1 6.203c0 .314.3.78.53.98.333.282.73.43 1.41.43.964 0 1.278-.198 2.026-.58.928-.48 1.593-1.56 2.073-2.72.082-.032.248-.05.33-.05a.57.57 0 0 1 .333.082c.017.63.017 1.624.017 1.825.002.48-.014.996-.048 1.51zM311.635 27.51c-.747 1.013-2.222 1.774-4.248 1.774-1.608 0-2.953-.445-3.865-1.11-1.443-1.095-2.355-2.836-2.355-4.96 0-1.99.63-3.585 1.775-4.712 1.045-1.045 2.422-1.625 4.164-1.625 1.892 0 2.754.514 3.684 1.178.232-.283.314-.498.564-.682.216.018.547.084.646.184 0 .314-.132 1.13-.132 1.625 0 .398.165 1.693.183 1.875-.066.066-.298.148-.397.148-.148 0-.3-.03-.365-.05-.266-.878-.564-1.642-.848-2.022-.68-.88-1.574-1.494-2.653-1.494-1.294 0-2.356.614-3.087 2.538-.315.715-.498 1.693-.498 2.904 0 1.275.316 2.47.53 3.02.4 1.026 1.628 2.188 3.354 2.188 1.245 0 2.34-.53 3.335-1.94.034 0 .085-.016.116-.016.383 0 .516.247.564.396-.132.283-.166.382-.465.78zM324.875 27.278a5.947 5.947 0 0 1-2.307 1.576 6.912 6.912 0 0 1-2.522.48c-1.442 0-2.688-.398-3.782-1.193-1.443-1.077-2.373-2.953-2.373-4.86 0-1.194.332-2.34.963-3.368.98-1.643 3.17-3.086 5.59-3.086 1.097 0 2.126.283 3.154.846 1.926 1.062 2.952 2.855 2.952 5.178 0 1.742-.598 3.252-1.675 4.428zm-2.273-8.592c-.498-.715-1.36-1.145-2.256-1.145-.582 0-1.163.183-1.727.647-1.063.88-1.66 2.705-1.66 5.01 0 1.56.35 3.35.98 4.312.464.747 1.276 1.11 2.206 1.11.68 0 1.277-.197 1.758-.596.946-.78 1.643-2.985 1.643-5.49 0-1.725-.315-2.987-.945-3.848zM339.872 28.49c-.034.464-.05.513-.35.513-.347 0-2.586.05-4.845.05-1.293 0-2.306-.017-3.35-.017-.715 0-1.892.05-2.473.05h-.332a.853.853 0 0 1-.05-.282c0-.082.032-.232.05-.297.397-.117 1.112-.283 1.527-.482.13-.232.214-.73.23-1.326 0-.284.017-.914.017-2.223 0-.533-.033-2.092-.083-4.3-.016-.845-.05-1.49-.1-1.657-.083-.25-.216-.53-.548-.682-.264-.066-.647-.05-1.045-.148-.032-.066-.05-.25-.05-.332 0-.117.033-.2.083-.266l6.257-.018c.05.035.064.2.064.283 0 .082-.016.25-.064.3-.764.032-1.71.015-1.71 1.26v1.892l.1 6.203c0 .314.3.78.53.98.332.282.732.43 1.41.43.963 0 1.277-.198 2.025-.58.928-.48 1.593-1.56 2.073-2.72.084-.032.25-.05.333-.05.133 0 .233.018.332.082.017.63.017 1.624.017 1.825.002.48-.015.996-.048 1.51zM352.944 28.49c-.032.464-.048.513-.347.513-.35 0-2.588.05-4.846.05-1.293 0-2.305-.017-3.35-.017-.714 0-1.892.05-2.472.05h-.333a.852.852 0 0 1-.05-.282c0-.082.034-.232.05-.297.397-.117 1.112-.283 1.527-.482.132-.232.216-.73.23-1.326 0-.284.02-.914.02-2.223 0-.533-.034-2.092-.085-4.3-.017-.845-.05-1.49-.1-1.657-.082-.25-.215-.53-.547-.682-.265-.066-.648-.05-1.046-.148-.033-.066-.05-.25-.05-.332 0-.117.034-.2.084-.266l6.256-.018c.047.035.064.2.064.283 0 .082-.018.25-.064.3-.766.032-1.71.015-1.71 1.26v1.892l.1 6.203c0 .314.298.78.53.98.332.282.73.43 1.41.43.963 0 1.277-.198 2.024-.58.93-.48 1.593-1.56 2.073-2.72.083-.032.25-.05.334-.05.132 0 .23.018.33.082.02.63.02 1.624.02 1.825.002.48-.015.996-.05 1.51zM366.1 28.804c-.014.15-.014.184-.064.266-.167.05-.314.033-.447.033-3.354 0-4.88-.1-5.41-.1-.963 0-1.76-.033-2.174-.033-.448 0-2.406.05-2.937.05h-.548a.612.612 0 0 1-.084-.298c0-.102.033-.266.084-.365.662-.033 1.343-.133 1.492-.248.1-.15.332-.93.365-1.577.017-.413.032-1.427.032-2.124v-3.42c0-.764-.016-1.725-.05-2.074-.15-.795-.364-.88-.597-1.078-.232-.133-1.012-.115-1.21-.182-.052-.066-.085-.248-.085-.332 0-.066.033-.2.084-.266h.563c.43 0 1.278.033 2.273.033.68 0 2.29-.017 3.07-.017 1.442 0 1.823-.016 2.77-.016.664 0 1.294.033 1.426.033.333 0 .366.05.384.215.03.416.1 1.727.1 2.74-.134.064-.15.098-.25.098-.083 0-.25 0-.35-.033-.48-.812-.96-1.576-1.59-2.057-.25-.2-.6-.3-1.064-.332-.15 0-.598-.017-1.56-.017-.763 0-.846.018-.995.033-.017.15-.05.365-.064.564-.018.3-.05.812-.05 2.406v1.543h.348c.23 0 .663-.052.963-.134.447-.133.88-.447 1.128-.863.033-.05.215-.746.264-.98.1-.05.315-.05.433-.05.165 0 .265.033.33.066-.05.6-.165 1.74-.165 2.57 0 .665.1 1.876.1 2.323a.584.584 0 0 1-.332.084c-.132 0-.347-.018-.43-.066-.034-.23-.134-1.144-.283-1.376-.166-.266-.332-.514-.747-.697a2.625 2.625 0 0 0-1.012-.232h-.614v3.634c0 .76.067.76.183 1.042.116.268.383.664.63.715.15.033.564.084 1.097.084h1.326c.615 0 .996-.032 1.245-.183.45-.266 1.26-1.293 1.824-2.57.118-.034.25-.034.365-.034.133 0 .166 0 .25.05.016.15.016.25.016.483 0 1.344 0 2.358-.035 2.688zM378.23 27.51c-.748 1.013-2.225 1.774-4.25 1.774-1.608 0-2.952-.445-3.865-1.11-1.443-1.095-2.355-2.836-2.355-4.96 0-1.99.63-3.585 1.775-4.712 1.045-1.045 2.422-1.625 4.165-1.625 1.89 0 2.754.514 3.684 1.178.23-.283.313-.498.563-.682.215.018.548.084.647.184 0 .314-.133 1.13-.133 1.625 0 .398.166 1.693.183 1.875-.066.066-.3.148-.398.148-.148 0-.298-.03-.365-.05-.265-.878-.563-1.642-.846-2.022-.68-.88-1.576-1.494-2.655-1.494-1.295 0-2.356.614-3.086 2.538-.316.715-.5 1.693-.5 2.904 0 1.275.318 2.47.534 3.02.397 1.026 1.625 2.188 3.35 2.188 1.245 0 2.34-.53 3.335-1.94.034 0 .084-.016.117-.016a.55.55 0 0 1 .564.396c-.133.283-.167.382-.465.78zM392.327 20.824c-.1 0-.183 0-.282-.03-.3-.782-.597-1.43-.878-1.812-.448-.596-.947-.98-1.977-1.26-.497-.018-1.01 0-1.243 0 0 2.87-.018 3.916-.018 5.46 0 1.192.017 1.874.033 3.664 0 .582.1 1.062.148 1.244.466.348 1.528.316 1.71.316a.6.6 0 0 1 .066.297c0 .084 0 .266-.05.348h-.465c-1.01 0-2.553-.048-3.034-.048-.6 0-2.04.066-2.654.066h-.647c-.018-.066-.018-.2-.018-.266 0-.133 0-.264.05-.38 1.99-.083 1.91-.433 1.976-.897.033-.264.05-1.358.05-3.798 0-2.82 0-3.336-.017-4.53a43.63 43.63 0 0 0-.05-1.46c-.267 0-1.228.016-1.727.066-.88.45-1.577 1.262-2.323 2.77-.066.034-.3.034-.364.034a.493.493 0 0 1-.267-.066v-3.17c0-.23.067-.28.283-.28h1.227c.93 0 2.62.033 4.68.033 2.652 0 5.258-.066 5.756-.066.25 0 .348.066.348.314v3.388c-.03.035-.247.066-.313.066zM400.655 29.036h-.547c-.548 0-2.274-.05-2.522-.05-.863 0-2.522.083-3.187.083h-.283c0-.083-.033-.15-.033-.282 0-.066.018-.28.05-.35 1.21-.082 1.41-.38 1.61-.547.115-.214.198-.597.23-.993.018-.58.052-1.66.052-2.14 0-.963-.017-2.123-.034-2.955-.017-1.525-.032-2.207-.05-2.52-.065-.896-.348-1.26-.547-1.41-.115-.085-.48-.167-1.294-.233a2.04 2.04 0 0 1-.03-.315c0-.15.03-.215.08-.283h.367c.73.018 2.354.068 2.703.068.564 0 2.19-.084 2.888-.084h.48a.512.512 0 0 1 .082.266c0 .066-.016.25-.05.316-.53.064-1.16.13-1.476.43-.117.1-.3.45-.3.896v4.082c0 1.54.018 3.184.035 3.98.114.597.296.962.56 1.278.3.066.98.133 1.23.148.033.066.05.248.05.332a.594.594 0 0 1-.065.282zM413.463 27.278a5.94 5.94 0 0 1-2.307 1.576 6.903 6.903 0 0 1-2.52.48c-1.444 0-2.69-.398-3.784-1.193-1.444-1.077-2.374-2.953-2.374-4.86 0-1.194.333-2.34.964-3.368.98-1.643 3.167-3.086 5.59-3.086 1.097 0 2.124.283 3.153.846 1.925 1.062 2.954 2.855 2.954 5.178 0 1.742-.598 3.252-1.677 4.428zm-2.273-8.592c-.497-.715-1.36-1.145-2.258-1.145-.58 0-1.16.183-1.725.647-1.06.88-1.66 2.705-1.66 5.01 0 1.56.35 3.35.98 4.312.464.747 1.277 1.11 2.206 1.11.68 0 1.277-.197 1.76-.596.945-.78 1.642-2.985 1.642-5.49 0-1.725-.315-2.987-.945-3.848zM430.518 17.572c-1.144.05-2.123.633-2.123 2.705v6.917c0 .25.017.746.017 1.23 0 .397-.116.663-.15.745-.065.034-.115.034-.197.034-.084 0-.384-.018-.466-.102l-7.666-8.608c-.082-.102-.2-.25-.298-.365-.018.58-.033 1.724-.033 3.034 0 .98.016 1.71.016 2.24 0 .58.1 1.808.216 2.056.562.748 1.41.88 1.99 1.03a.77.77 0 0 1 .05.265c0 .066-.018.266-.082.28h-.996c-.68 0-1.18-.048-1.908-.048-.498 0-1.26.05-1.593.05h-.315c-.034-.017-.05-.183-.05-.233 0-.082.034-.215.066-.297.863-.217 1.394-.482 1.743-.848.05-.282.1-.714.1-1.263V23.03c0-1.16.05-2.37.05-3.233 0-.232-.017-.416-.067-.53-.148-.333-.613-.747-.878-1.046-.45-.48-.997-.563-1.244-.63a2.232 2.232 0 0 1-.05-.316c0-.064.033-.164.066-.232.282 0 2.207.05 3.27.05.132 0 .364.02.497.02.1.063.2.147.25.214l5.54 6.14c.664.745 1.062 1.31 1.345 1.66.017-.183.033-.317.033-.716v-3.467c0-.682-.016-.93-.032-1.178-.05-.648-.183-1.344-.482-1.693-.43-.283-1.442-.398-1.708-.48-.067-.066-.082-.2-.082-.283 0-.067.015-.25.064-.282h.432c.185 0 .947.033 1.46.033 1.494 0 2.024-.032 2.855-.032h.38a.53.53 0 0 1 .05.232.773.773 0 0 1-.07.312zM437.437 29.284c-1.045 0-1.893-.08-3.054-.664-.165-.08-.43-.23-.53-.23-.117 0-.48.23-.847.53-.232 0-.714-.165-.763-.33.033-.267.183-.864.183-1.677 0-.332-.066-1.51-.066-1.726a.65.65 0 0 1 .314-.098c.117 0 .35 0 .465.032.165.646.796 1.655 1.178 2.17.646.897 1.857 1.278 2.604 1.278.697 0 1.326-.197 1.74-.68.467-.514.665-.963.665-1.477 0-.796-.415-1.358-1.74-1.84-.3-.1-2.523-.747-3.004-.962-.715-.298-1.23-.714-1.593-1.26a3.938 3.938 0 0 1-.598-2.075c0-1.89 1.643-3.367 3.898-3.367 1.046 0 1.94.1 3.12.996.232-.217.463-.45.713-.6.248 0 .58.033.73.234-.05.297-.15 1.176-.15 1.607 0 .498.083.996.133 1.412-.1.082-.215.164-.365.164a3.08 3.08 0 0 1-.395-.032c-.366-.846-.715-1.275-1.113-1.857-.48-.712-1.26-1.194-2.207-1.194-1.06 0-2.022.83-2.022 1.727 0 .58.53 1.326.896 1.51.546.266 1.392.547 2.42.812.88.232 1.527.48 1.876.697 1.277.713 1.875 1.676 1.875 3.2 0 2.427-1.842 3.702-4.363 3.702z"/></svg>