<svg xmlns="http://www.w3.org/2000/svg" width="452.179" height="16.168" viewBox="34.927 5.373 452.179 16.168"><path fill="#FFF" d="M384.627 20.362c-.04.596-.06.658-.447.658-.443 0-3.316.064-6.213.064-1.658 0-2.957-.02-4.297-.02-.914 0-2.426.063-3.17.063h-.426a1.075 1.075 0 0 1-.064-.36c0-.11.043-.3.064-.384.51-.15 1.426-.363 1.957-.617.17-.3.278-.938.298-1.703 0-.36.023-1.168.023-2.852 0-.68-.042-2.68-.106-5.51-.02-1.086-.064-1.913-.127-2.125-.107-.32-.277-.682-.703-.873-.34-.086-.83-.065-1.34-.193-.043-.085-.064-.32-.064-.426 0-.148.043-.255.107-.34l8.02-.02c.065.042.085.255.085.36 0 .106-.02.32-.084.384-.98.04-2.19.02-2.19 1.617v2.424l.126 7.957c0 .404.383 1 .682 1.256.424.36.938.553 1.81.553 1.23 0 1.638-.256 2.597-.743 1.19-.617 2.04-2 2.658-3.49.106-.043.32-.063.427-.063.17 0 .297.02.426.106.02.81.02 2.087.02 2.34 0 .616-.023 1.277-.066 1.936zM395.44 21.063h-.703c-.7 0-2.914-.062-3.232-.062-1.105 0-3.236.106-4.088.106h-.36c0-.105-.042-.19-.042-.36 0-.088.02-.36.064-.447 1.55-.105 1.808-.49 2.06-.703.15-.277.255-.767.3-1.275.02-.745.062-2.13.062-2.746 0-1.234-.02-2.722-.043-3.786-.02-1.96-.044-2.828-.065-3.233-.086-1.15-.445-1.616-.7-1.808-.147-.11-.618-.215-1.66-.3a2.93 2.93 0 0 1-.042-.405c0-.19.043-.275.104-.362h.473c.934.022 3.02.087 3.467.087.725 0 2.81-.107 3.7-.107h.62c.04.043.104.214.104.34 0 .086-.02.32-.06.406-.683.083-1.49.17-1.896.552-.15.127-.383.575-.383 1.148v5.233c0 1.98.022 4.084.044 5.104.148.767.38 1.234.723 1.64.383.087 1.254.17 1.574.19.044.086.065.32.065.428a.803.803 0 0 1-.085.358zM412.887 20.085c-.96.896-2.13 1.044-3.66 1.02l-6.428-.085c-.573 0-2.425.043-3.02.043-.403 0-.786 0-.872-.02-.04-.086-.064-.3-.064-.386a.99.99 0 0 1 .107-.426c1.233 0 2.173-.232 2.257-.552.127-.445.256-1.188.318-1.87.02-.575.062-2.298.062-4.277 0-1.786-.105-4.763-.127-4.977a5.915 5.915 0 0 0-.13-.957c-.104-.404-.4-.873-1-.96-.51-.06-1.19-.147-1.51-.19a1.398 1.398 0 0 1-.063-.382c0-.128.02-.234.084-.34.108-.022.343-.022.517-.022h5.043c1.297 0 2.764-.063 3.637-.063 1.17 0 2.213.147 2.83.445 1.424.66 2.06 1.83 2.06 3.47 0 1.34-.51 2.318-1.4 2.722-.276.127-1.065.34-1.446.445-.106.022-.384.087-.384.17 0 .13.36.15.62.194.337.063 1.296.254 1.55.36.385.148 1.277.745 1.682 1.51.363.64.555 1.363.555 2.172-.003 1.213-.43 2.214-1.216 2.957zm-2.957-4.872c-.617-1.106-1.256-1.383-2.512-1.66a6.907 6.907 0 0 0-1.428-.147c-.445 0-.807.02-.87.106 0 .04-.022.298-.022.723V18c0 .616.02.77.064 1.02.215.47.617.874 1.064 1.175.17.04.658.062.895.062 1.255 0 1.702-.233 2.32-.853.552-.596.85-1.467.85-2.7.002-.577-.125-1.087-.36-1.49zm-1.086-7.445c-.34-.64-.83-1-1.488-1.15-.3-.084-.727-.127-1.215-.127-.272 0-.614.022-.935.022-.02.66-.064 3.3-.064 3.3v1.682c0 .592.022 1 .065 1.04.02.043.3.043.617.043.873 0 2.254-.234 2.51-.448a1.34 1.34 0 0 0 .36-.446c.386-.637.575-1.34.575-2.085 0-.663-.145-1.302-.423-1.832zM433.633 21.086h-3.04c-.81 0-1.937-.043-2.105-.065-.406-.038-.574-.423-.643-.87-.21-1.553-.656-3.51-1.34-4.574-.51-.787-.893-1.105-1.68-1.553-.533-.298-.854-.34-1.13-.34-.17 0-.382 0-.552.022l.02 4.913c0 .743.384 1.258.915 1.513.234.044.766.17 1.193.214.044.086.085.297.085.448a.88.88 0 0 1-.084.315c-1.214 0-2.362-.062-3.726-.062-.68 0-3.936.062-4.232.062a1.27 1.27 0 0 1-.084-.338c0-.11.04-.32.105-.428.424-.022.934-.108 1.21-.147.618-.256.81-.896.874-1.426.105-.81.084-3.32.084-5.494 0-3-.02-4.743-.126-5.42-.213-.472-.383-.77-.895-1.15-.34-.066-1-.15-1.362-.194a2.364 2.364 0 0 1-.043-.382 1.3 1.3 0 0 1 .105-.404c.13 0 .938.043 1.258.043.744 0 2.594.04 2.914.04 1.062 0 3.3-.148 4.893-.148 1.13 0 2.045.087 2.555.234 1.555.49 2.658 2.148 2.658 3.872 0 1.148-.467 2.127-1.318 2.766-.402.32-.766.596-2.342.786-.4.044-.553.066-.87.13.257.104.53.213.87.34.746.256 1.406.533 1.6.703.51.467 1.127 1.47 1.572 2.53.318.81.64 1.47.914 2.446.086.147.256.404.36.53.32.232 1.192.275 1.407.275.063.086.106.344.106.45.006.104-.037.276-.123.36zm-6.53-13.447c-.597-1-1.32-1.15-2.98-1.15-.45 0-.83.064-.895.13-.062.062-.127.21-.127.467v3.915l.022 1.81c.256.042.574.042.79.042.784 0 1.313-.063 1.743-.17 1.04-.256 1.936-1.768 1.936-3.086.002-.725-.146-1.384-.488-1.96zM451.975 21.086c-1.383 0-3.086-.065-4.402-.065-.81 0-1.744.044-2.107.044h-1.596c-.105-.082-.127-.295-.148-.383 0-.083.02-.253.127-.38.83-.044 1.276-.128 1.573-.277.193-.213.297-.62.297-1.04-.084-.32-.254-.83-.55-1.683-.17-.512-.343-.938-.49-1.3-.085-.147-.276-.487-.446-.617-.895.02-3.277-.02-4.768.044a4.29 4.29 0 0 0-.318.786l-.81 2.49c.085.7.32 1.17.618 1.446.19.083.766.17 1.3.212.06.104.104.275.083.36a.97.97 0 0 1-.085.384h-.574c-.767 0-1.597-.086-2.405-.086-.744 0-2.04.043-2.49.043a.685.685 0 0 1-.082-.34c.02-.086.062-.298.082-.404.916-.257 1.895-.49 2.236-1.257.638-1.553.49-1.147 1.51-3.852 1.044-2.765 1.81-4.7 2.278-5.807.596-1.362.895-2.128.957-2.276.213-.575.467-1.063.658-1.234.13-.147.576-.3.746-.3.21 0 1.085.173 1.21.343.045.062.13.232.193.403l.936 2.318 3.19 7.958c.404.978.598 1.425.96 2.274.167.426.423.916.552 1.02.105.085 1.213.385 1.766.47.043.084.105.274.13.36-.002.09-.068.28-.133.346zm-8.426-7.83a94.378 94.378 0 0 0-1.47-3.7 9.692 9.692 0 0 1-.19-.428c-.233.575-.513 1.214-.915 2.213-.596 1.513-1.086 2.896-1.17 3.19h2.574c.595 0 1.19 0 1.573-.082a9.1 9.1 0 0 0-.404-1.19zM469.446 21.086h-3.043c-.81 0-1.94-.043-2.107-.065-.402-.038-.572-.423-.637-.87-.214-1.553-.66-3.51-1.34-4.574-.515-.787-.897-1.105-1.685-1.553-.53-.298-.852-.34-1.127-.34-.17 0-.383 0-.553.022l.02 4.913c0 .743.385 1.258.916 1.513.235.044.767.17 1.192.214.043.086.084.297.084.448a.88.88 0 0 1-.084.315c-1.213 0-2.36-.062-3.725-.062-.68 0-3.936.062-4.232.062a1.285 1.285 0 0 1-.086-.338c0-.11.042-.32.104-.428.426-.022.938-.108 1.213-.147.617-.256.81-.896.873-1.426.107-.81.086-3.32.086-5.494 0-3-.02-4.743-.127-5.42-.216-.472-.386-.77-.896-1.15-.34-.066-1-.15-1.36-.194a2.364 2.364 0 0 1-.044-.382 1.3 1.3 0 0 1 .105-.404c.13 0 .936.043 1.256.043.747 0 2.597.04 2.917.04 1.062 0 3.297-.148 4.893-.148 1.13 0 2.04.087 2.555.234 1.553.49 2.656 2.148 2.656 3.872 0 1.148-.466 2.127-1.315 2.766-.406.32-.768.596-2.342.786a8.045 8.045 0 0 0-.873.13c.256.104.533.213.873.34.744.256 1.404.533 1.598.703.51.467 1.128 1.47 1.573 2.53.32.81.64 1.47.916 2.446.085.147.253.404.36.53.32.232 1.19.275 1.404.275.064.086.105.344.105.45.003.104-.038.276-.124.36zm-6.53-13.447c-.597-1-1.32-1.15-2.98-1.15-.446 0-.833.064-.894.13-.066.062-.13.21-.13.467v3.915l.02 1.81c.256.042.576.042.79.042.788 0 1.317-.063 1.743-.17 1.043-.256 1.938-1.768 1.938-3.086.002-.725-.15-1.384-.488-1.96zM486.997 6.34c-.426.107-1.234.236-1.53.428-.427.253-.98.744-1.278 1.297l-3.34 6.427c-.108.17-.15.36-.15.573 0 .02-.02.274 0 .53l.19 3c.043.83.213 1 .555 1.362.213.214 1.17.34 1.852.427a.844.844 0 0 1 .084.384c0 .104-.06.295-.103.38-.385 0-.94-.02-1.66-.042-1.256-.02-2.744-.043-3.19-.043-.64 0-2.575.022-3.66.022-.02-.085-.063-.257-.063-.36 0-.105.02-.258.105-.406.49-.044 1.552-.19 1.7-.277.363-.23.682-.724.682-1.637 0-1.085-.043-1.767-.19-2.362a7.035 7.035 0 0 0-.683-1.595l-3.767-7.106c-.148-.277-.682-.534-2.107-.873a.887.887 0 0 1-.105-.36c0-.152.044-.277.128-.428.17 0 2.234.066 3.28.066 2.446 0 2.85-.066 4.274-.066h.383c.064.107.127.17.127.32 0 .085 0 .32-.043.426-.892.106-1.554.17-1.745.532-.04.084-.084.275-.062.553 0 .19.127.447.19.596l1.15 2.382c.255.555 1.36 2.68 1.935 3.7.342-.53.873-1.595 1.79-3.36.593-1.17 1.02-2.022 1.23-2.553.108-.278.13-.533.13-.787 0-.148-.043-.405-.17-.62-.172-.295-1.064-.444-1.684-.57-.02-.067-.02-.258-.02-.363 0-.106.02-.234.084-.36.572 0 1.47.083 2.553.083.45 0 2.237-.065 3.106-.065.045.086.13.236.13.36a1.762 1.762 0 0 1-.11.383zM194.242 5.91c0-.085-.02-.235-.063-.3h-.495c-1.073 0-1.76.043-3.69.043-.666 0-1.653-.043-1.89-.043h-.557c-.065.043-.087.28-.087.365 0 .107.022.28.108.367.343.104 1.652.254 2.21.62.384.452.558 1.353.62 2.19.022.325.045.644.045 1.524v4.49c0 .515-.022.688-.044.924-.363-.41-.88-1.182-1.738-2.15L181.49 6a1.325 1.325 0 0 0-.32-.282c-.172 0-.473-.02-.645-.02-1.373 0-3.865-.065-4.23-.065a.762.762 0 0 0-.086.305c0 .04.04.342.063.406.322.084 1.033.19 1.61.814.345.385.945.922 1.14 1.354.064.148.084.385.084.686 0 1.117-.064 2.686-.064 4.186v4.36c0 .71-.063 1.267-.128 1.632-.448.473-1.137.816-2.255 1.096-.043.107-.084.28-.084.387 0 .063.02.278.064.3h.408c.426 0 1.418-.062 2.06-.062.945 0 1.59.063 2.47.063h1.287c.09-.02.108-.278.108-.362 0-.088-.02-.26-.063-.344-.752-.193-1.846-.365-2.576-1.332-.152-.322-.28-1.912-.28-2.666 0-.687-.022-1.63-.022-2.896 0-1.697.022-3.178.045-3.93.127.15.277.342.386.473l9.918 11.145c.11.107.494.13.6.13.108 0 .174 0 .258-.044.045-.107.195-.45.195-.967 0-.62-.02-1.266-.02-1.588V9.82c0-2.687 1.267-3.437 2.75-3.503.06-.105.08-.298.08-.406m-24.607 6.83c0 3.243-.898 6.097-2.12 7.106-.627.516-1.4.772-2.28.772-1.202 0-2.254-.472-2.856-1.438-.815-1.246-1.27-3.564-1.27-5.583 0-2.986.775-5.326 2.15-6.465.732-.602 1.48-.836 2.233-.836 1.16 0 2.275.56 2.92 1.482.816 1.118 1.223 2.73 1.223 4.963m3.89.41c0-3.01-1.333-5.306-3.82-6.68-1.334-.733-2.667-1.097-4.08-1.097-3.138 0-5.972 1.87-7.24 3.994-.816 1.332-1.246 2.79-1.246 4.338 0 2.47 1.205 4.896 3.073 6.29 1.415 1.03 3.027 1.546 4.896 1.546a8.91 8.91 0 0 0 3.263-.62 7.692 7.692 0 0 0 2.983-2.04c1.395-1.524 2.17-3.48 2.17-5.73M154.65 10.44V6.06c0-.322-.128-.406-.452-.406-.645 0-4.04.084-7.473.084-2.664 0-4.875-.04-6.077-.04h-1.59c-.278 0-.364.063-.364.362v4.104c.086.064.236.084.345.084.085 0 .385 0 .47-.043.967-1.95 1.868-3.004 3.007-3.582.643-.068 1.912-.09 2.252-.09.022.238.046.99.066 1.89.02 1.546.02 2.212.02 5.862 0 3.157-.02 4.573-.063 4.92-.086.6.023 1.053-2.554 1.157-.066.15-.066.324-.066.494 0 .086 0 .26.02.345h.84c.792 0 2.66-.083 3.435-.083.622 0 2.62.062 3.93.062h.6c.062-.108.062-.343.062-.454a.768.768 0 0 0-.088-.385c-.232 0-1.61.042-2.21-.405a6.772 6.772 0 0 1-.193-1.613c-.02-2.317-.043-3.196-.043-4.745 0-1.994.02-3.348.02-7.064.304 0 .99-.02 1.633 0 1.333.367 1.978.86 2.557 1.635.366.492.752 1.332 1.138 2.34.13.043.24.043.367.043.087-.002.363-.045.41-.088m-18.515 6.98c0-.304 0-.43-.02-.624-.106-.066-.15-.066-.323-.066-.15 0-.32 0-.472.045-.73 1.652-1.78 2.943-2.362 3.285-.32.195-.816.236-1.61.236h-1.76c-.687 0-1.225-.064-1.417-.107-.325-.06-.666-.577-.818-.92-.15-.366-.233-.366-.233-1.355v-4.703h.793c.214 0 .73.043 1.312.3.535.237.752.56.965.903.194.3.322 1.48.363 1.783.11.062.39.086.558.086.177 0 .28-.023.435-.107 0-.582-.133-2.148-.133-3.008 0-1.075.15-2.558.215-3.33-.082-.044-.215-.085-.426-.085-.154 0-.432 0-.562.064-.063.302-.3 1.2-.344 1.267-.318.537-.88.943-1.46 1.115-.386.107-.944.17-1.243.17h-.453v-1.994c0-2.062.046-2.73.064-3.115.023-.258.066-.535.086-.73.195-.02.303-.04 1.29-.04 1.245 0 1.824.02 2.02.02.603.042 1.05.173 1.373.43.814.624 1.437 1.61 2.062 2.665.128.04.342.04.45.04.13 0 .15-.04.325-.128 0-1.31-.09-3.008-.13-3.543-.023-.215-.065-.28-.495-.28-.173 0-.988-.042-1.85-.042-1.224 0-1.715.02-3.582.02-1.01 0-3.096.022-3.975.022-1.287 0-2.385-.043-2.942-.043h-.73a.713.713 0 0 0-.106.346c0 .105.043.344.107.428.258.084 1.268.064 1.567.236.3.258.58.365.775 1.396.04.45.062 1.695.062 2.684v4.424c0 .903-.02 2.21-.044 2.748-.044.836-.345 1.847-.472 2.04-.195.148-1.074.277-1.932.322-.066.128-.11.343-.11.472s.044.278.11.388h.707c.686 0 3.22-.064 3.8-.064.538 0 1.567.045 2.814.045.685 0 2.706.126 7.044.126.173 0 .364.02.58-.043.065-.107.065-.15.088-.344.04-.43.04-1.7.04-3.437m-18.17.75a.71.71 0 0 0-.728-.518c-.042 0-.104.02-.15.02-1.287 1.827-2.705 2.516-4.314 2.516-2.235 0-3.825-1.5-4.34-2.833-.275-.71-.665-2.256-.665-3.908 0-1.567.237-2.837.646-3.76.945-2.49 2.32-3.263 3.994-3.263 1.395 0 2.555.793 3.436 1.934.365.493.752 1.46 1.096 2.6.086.022.28.06.473.06.13 0 .43-.106.516-.19-.02-.238-.235-1.89-.235-2.406 0-.643.17-1.695.17-2.105-.128-.128-.56-.214-.836-.235-.323.234-.43.514-.73.88-1.202-.858-2.32-1.524-4.768-1.524-2.255 0-4.036.774-5.392 2.128-1.48 1.46-2.297 3.48-2.297 6.053 0 2.753 1.16 5.005 3.03 6.423 1.18.86 2.92 1.44 5 1.44 2.622 0 4.534-.987 5.5-2.3.383-.514.428-.645.596-1.01M101.263 5.91c0-.085-.02-.235-.066-.3h-.494c-1.074 0-1.76.043-3.69.043-.667 0-1.654-.043-1.892-.043h-.557c-.063.043-.086.28-.086.365 0 .107.02.28.103.367.345.104 1.655.254 2.212.62.386.452.562 1.353.625 2.19.02.325.042.644.042 1.524v4.49c0 .515-.023.688-.042.924-.367-.41-.88-1.182-1.74-2.15L88.508 6a1.437 1.437 0 0 0-.32-.282c-.172 0-.477-.02-.646-.02-1.377 0-3.866-.065-4.233-.065a.85.85 0 0 0-.086.305c0 .04.045.342.067.406.322.084 1.03.19 1.61.814.344.385.943.922 1.14 1.354.06.148.084.385.084.686 0 1.117-.063 2.686-.063 4.186v4.36c0 .71-.062 1.267-.13 1.632-.45.473-1.14.816-2.254 1.096a1.22 1.22 0 0 0-.086.387c0 .063.022.278.063.3h.41c.43 0 1.417-.062 2.06-.062.948 0 1.588.063 2.472.063h1.287c.086-.02.108-.278.108-.362a1 1 0 0 0-.063-.344c-.753-.193-1.85-.365-2.58-1.332-.15-.322-.275-1.912-.275-2.666 0-.687-.026-1.63-.026-2.896 0-1.697.026-3.178.045-3.93.132.15.28.342.39.473l9.92 11.145c.107.107.494.13.6.13.107 0 .174 0 .258-.044.044-.107.194-.45.194-.967 0-.62-.02-1.266-.02-1.588V9.82c0-2.687 1.267-3.437 2.747-3.503.063-.105.084-.298.084-.406m-21.24 14.884c0-.107-.02-.344-.064-.432-.32-.02-1.2-.105-1.586-.19-.345-.41-.58-.886-.73-1.655-.022-1.03-.044-3.158-.044-5.15V8.078c0-.58.235-1.03.386-1.16.407-.388 1.223-.474 1.912-.558.044-.084.062-.322.062-.408 0-.13-.062-.3-.107-.344h-.62c-.904 0-3.007.107-3.737.107-.45 0-2.557-.064-3.5-.086h-.476c-.064.087-.105.175-.105.368 0 .084.023.3.04.406 1.054.086 1.526.19 1.678.3.256.194.622.665.708 1.827.024.407.046 1.288.065 3.263.02 1.076.044 2.578.044 3.822 0 .625-.045 2.02-.064 2.772-.045.514-.154 1.008-.303 1.285-.26.215-.514.604-2.082.707-.044.087-.06.366-.06.454 0 .17.04.256.04.363h.367c.856 0 3.004-.107 4.12-.107.32 0 2.557.064 3.265.064h.71a.818.818 0 0 0 .082-.36M62.802 9.584c0 1.33-.9 2.856-1.953 3.114-.43.105-.967.172-1.764.172-.213 0-.536 0-.794-.043L58.27 11V7.05c0-.26.067-.408.13-.473.065-.066.453-.13.902-.13 1.674 0 2.407.15 3.006 1.16.345.58.494 1.246.494 1.978m6.228 11.228c0-.107-.04-.363-.107-.45-.214 0-1.094-.044-1.416-.278a5.07 5.07 0 0 1-.365-.537c-.28-.99-.6-1.654-.925-2.47-.45-1.075-1.073-2.083-1.587-2.556-.194-.174-.86-.45-1.61-.71a21.805 21.805 0 0 1-.883-.345c.32-.06.476-.086.883-.127 1.588-.19 1.954-.47 2.362-.795.857-.645 1.33-1.633 1.33-2.79 0-1.74-1.117-3.413-2.684-3.91-.518-.15-1.438-.235-2.576-.235-1.613 0-3.867.15-4.94.15-.32 0-2.19-.043-2.942-.043-.322 0-1.138-.043-1.27-.043-.063.15-.105.324-.105.408s.023.3.042.39c.368.038 1.03.124 1.377.19.515.387.687.686.903 1.16.104.688.127 2.447.127 5.473 0 2.19.022 4.726-.086 5.54-.066.538-.258 1.186-.884 1.44-.276.042-.79.128-1.224.15a1.09 1.09 0 0 0-.105.43c0 .063.045.235.087.344.3 0 3.585-.065 4.274-.065 1.373 0 2.534.064 3.758.064a.93.93 0 0 0 .086-.323c0-.15-.045-.364-.086-.448-.43-.05-.97-.174-1.2-.217-.54-.26-.926-.772-.926-1.524l-.023-4.964c.173-.02.387-.02.56-.02.28 0 .602.043 1.137.344.794.45 1.184.77 1.7 1.566.685 1.075 1.134 3.053 1.35 4.616.063.453.237.838.646.884.17.02 1.31.062 2.125.062h3.07c.086-.085.127-.257.127-.365M45.708 9.69c0 1.094-.385 2.06-1.096 2.682-.448.37-1.156.582-2.23.582-.45 0-.794-.02-.924-.043-.172-.02-.278-.04-.278-.15l.02-6.288c.26-.025.625-.11 1.246-.11 1.46 0 2.362.366 2.792 1.27.3.576.47 1.306.47 2.058m3.845.086c0-1.61-.925-3.113-2.3-3.736-.706-.303-1.952-.494-3.84-.494-1.657 0-4.23.13-5.37.13-.793 0-2-.087-2.664-.087a.778.778 0 0 0-.107.347c0 .082 0 .318.065.426.406.13 1.072.234 1.504.342.363.324.448.604.576 1.225.066.754.107 1.697.107 3.33 0 4.53-.018 6.914-.085 7.43-.086.646-.513 1.31-1.224 1.525-.322.063-.795.168-1.246.216a2.36 2.36 0 0 0-.043.45c0 .17.023.19.064.3.69 0 2.706-.086 3.48-.086 1.91 0 3.866.087 4.657.087h.54c.062-.086.062-.235.062-.342 0-.13 0-.303-.043-.387-.643-.088-1.608-.217-2.017-.687-.216-.26-.43-.623-.43-1.267l-.064-4.723c1.288.082 2.66.127 3.414.127.988 0 1.827-.174 2.492-.387 1.528-.58 2.47-2.084 2.47-3.737M361.235 5.737c0-.127-.086-.17-.13-.256-.882 0-2.038.065-2.49.065-1.097 0-2.427-.086-3.007-.086-.062.128-.084.15-.084.26 0 .104.02.19.043.255.62.13 1.52.28 1.693.578.152.28.195.496.195.838 0 .26-.023.52-.13.796-.192.537-.603 1.375-1.183 2.557-.986 1.998-1.61 3.242-1.953 3.734-.56-.94-1.806-3.435-2.105-4.08l-1.203-2.618c-.043-.087-.086-.39-.086-.58 0-.28.043-.474.086-.56.193-.387.86-.43 1.76-.537a.9.9 0 0 0 .066-.324c0-.15-.066-.106-.13-.214h-.388c-1.44 0-1.012.064-3.48.064-1.053 0-2.316-.064-2.49-.064-.086.152-.13.17-.13.322 0 .086.022.15.085.258 1.44.344 1.87.602 2.02.88l3.76 7.367c.364.686.577 1.223.687 1.608.15.605.172 1.482.172 2.58 0 .92-.322 1.417-.688 1.65-.15.086-1.225.238-1.717.28-.087.147-.108.192-.108.302 0 .105.043.17.062.256 1.098 0 2.232-.02 2.88-.02.448 0 1.136.02 2.405.042.728.023 1.286.043 1.675.043.04-.086.104-.172.104-.278 0-.107-.02-.17-.087-.28-.686-.083-1.65-.214-1.865-.427-.346-.367-.52-.537-.562-1.373l-.17-3.223c-.02-.236.062-.45.084-.517.066-.236.152-.43.238-.604l3.307-6.548c.3-.56.945-1.182 1.373-1.44.3-.19.97-.32 1.396-.427.05-.104.09-.19.09-.278m-17.35 4.426V6c0-.325-.13-.41-.454-.41-.643 0-3.604.085-7.043.085-2.662 0-4.443-.043-5.645-.043h-1.59c-.28 0-.365.064-.365.367v3.886a.38.38 0 0 0 .258.082c.084 0 .172 0 .258-.04.838-1.868 1.266-2.858 2.705-3.585.645-.064 2.898-.088 3.244-.088.02.236.043.988.062 1.89.02 1.546.02 2.382.02 6.032 0 3.158-.02 4.79-.062 5.133-.086.603.023 1.053-2.555 1.162-.064.148-.064.19-.064.365 0 .084 0 .17.02.256h.84c.794 0 1.845-.086 2.618-.086.624 0 1.808.064 3.116.064h.602c.062-.106.062-.214.062-.32 0-.13-.02-.192-.084-.3-.236 0-1.61.043-2.213-.41a6.647 6.647 0 0 1-.193-1.61c-.02-2.32-.045-3.413-.045-4.96 0-1.997.023-3.52.023-7.233.3 0 1.89-.023 2.53 0 1.333.36 1.85.857 2.43 1.63.517.687.644 1.31.966 2.34.13.042.193.042.324.042a.407.407 0 0 0 .235-.087M326.04 20.77a.702.702 0 0 0-.064-.298c-.322-.02-1.203-.11-1.59-.193-.344-.406-.58-.882-.73-1.656-.022-1.03-.042-3.37-.042-5.367V7.8c0-.58.232-1.03.387-1.158.41-.387 1.226-.475 1.91-.56a.648.648 0 0 0 .063-.276.363.363 0 0 0-.105-.26h-.623c-.902 0-2.19.107-2.922.107-.45 0-1.74-.064-2.686-.086h-.47c-.067.086-.108.086-.108.28 0 .085.02.17.04.278 1.055.086 1.527.19 1.678.3.258.196.62.667.71 1.827.02.406.04 1.502.06 3.477.022 1.073.044 2.533.044 3.78 0 .623-.043 2.232-.064 2.982-.04.516-.148 1.01-.3 1.29-.26.216-.517.6-2.085.71a.83.83 0 0 0-.062.32c0 .17.044.17.044.278h.365c.856 0 2.187-.107 3.308-.107.322 0 1.738.064 2.447.064h.71a.548.548 0 0 0 .085-.278m-10.61-3.95c0-1.718-.773-2.9-2.428-3.78-.45-.26-1.244-.537-2.383-.86-1.312-.364-2.407-.792-3.114-1.18-.475-.257-1.27-.966-1.27-2.34 0-1.374 1.396-2.513 3.03-2.513 1.286 0 2.32.643 2.94 1.502.537.753.73 1.095 1.332 2.448a.76.76 0 0 0 .215.043.698.698 0 0 0 .473-.214c-.064-.535-.172-1.287-.172-1.932 0-.56.127-1.29.19-1.678-.17-.256-.362-.3-.644-.3-.3.194-.578.493-.838.772-1.416-1.137-2.578-1.33-3.648-1.33-2.643 0-4.53 1.76-4.53 4.102 0 .795.275 1.568.794 2.363.473.666 1.158 1.182 2.082 1.566.625.257 3.416 1.097 3.8 1.245 1.72.664 2.364 1.246 2.364 2.77 0 .752-.322 1.418-.945 2.168-.56.688-1.44 1.012-2.384 1.012-1.01 0-2.75-.432-3.607-1.59-.52-.666-1.25-2.06-1.462-2.9-.15-.043-.15-.043-.3-.043a.75.75 0 0 0-.41.132c0 .278.085 1.694.085 2.123 0 1.055-.19 1.567-.234 1.91.063.217.43.432.686.432.452-.39.926-.688 1.073-.688.13 0 .323.064.517.19 1.396.903 2.557 1.075 3.588 1.075 3.025.002 5.195-1.523 5.195-4.508m-19.006-7.41c0 1.374-1.094 2.92-2.362 3.2-.515.11-1.267.17-2.23.17-.257 0-.99 0-1.313-.04l-.022-1.89V6.79c0-.28.065-.428.15-.492.087-.062.967-.13 1.503-.13 2.022 0 2.94.194 3.674 1.245.406.582.6 1.246.6 1.998m4.51 11.382a.57.57 0 0 0-.105-.32c-.214 0-1.098-.043-1.417-.28a4.612 4.612 0 0 1-.365-.535c-.28-.986-.58-1.87-.904-2.687-.45-1.074-1.072-2.082-1.588-2.555-.193-.172-.795-.45-1.547-.71-.343-.13-.622-.235-.882-.343a7.54 7.54 0 0 1 .88-.13c1.396-.17 1.87-.472 2.278-.792.856-.646 1.416-1.61 1.416-2.77 0-1.74-1.117-3.392-2.685-3.89-.517-.148-1.438-.234-2.576-.234-1.61 0-2.81.15-3.888.15-.322 0-1.373-.043-2.125-.043-.32 0-1.138-.043-1.27-.043-.062.15-.103.195-.103.28 0 .085.02.214.04.3.367.045 1.03.127 1.373.193.52.387.688.686.904 1.158.108.687.13 2.622.13 5.647 0 2.19.02 4.94-.088 5.757-.062.535-.258 1.183-.88 1.437-.28.05-.792.133-1.224.153-.064.106-.107.19-.107.303 0 .062.044.147.09.256.298 0 2.768-.063 3.454-.063 1.375 0 1.72.062 2.94.062.046-.086.09-.15.09-.235a.62.62 0 0 0-.09-.322c-.427-.04-.964-.172-1.2-.215-.537-.256-.922-.77-.922-1.523l-.023-5.37c.17-.02.794-.02.966-.02.58 0 1.16.042 1.72.3.813.365 1.588.945 2.104 1.738.687 1.074 1.137 3.113 1.353 4.684.063.448.233.835.644.878.174.02.43.064 1.248.064h2.23a.368.368 0 0 0 .128-.28m-18.016-3.264c0-.3 0-.43-.02-.62-.105-.07-.15-.07-.322-.07-.15 0-.13 0-.28.046-.472 1.568-1.286 2.73-2.21 3.287-.322.192-.902.237-1.826.237h-2.405c-.752-.025-1.225-.066-1.418-.11-.322-.063-.666-.577-.816-.923-.148-.365-.235-.494-.235-1.48v-4.896h.69c.685 0 1.244.043 1.824.3.536.24.943.58 1.157.926.194.3.258 1.48.303 1.78.104.065.17.088.345.088.168 0 .192-.02.344-.106 0-.582-.132-2.148-.132-3.008 0-1.072.15-2.385.215-3.156-.084-.043-.13-.084-.342-.084-.15 0-.217 0-.346.064-.063.3-.235 1.2-.278 1.264-.32.54-1.072.967-1.654 1.14-.385.108-.943.17-1.758.17h-.344v-2.1c0-2.065.04-2.903.062-3.29.02-.256.063-.537.086-.73.194-.02.815-.042 1.805-.042 1.246 0 2.168.023 2.36.023.604.043 1.054.17 1.373.428 1.056.816 1.335 1.354 1.914 2.662.127.043.15.043.257.043.13 0 .15-.043.323-.13 0-1.31-.086-2.792-.13-3.327-.02-.215-.064-.28-.493-.28-.172 0-.99-.042-1.846-.042-1.224 0-1.72.022-3.587.022-1.01 0-2.793.02-3.672.02-1.29 0-1.567-.042-2.126-.042h-.73a.44.44 0 0 0-.108.258c0 .107.043.215.11.3.257.09 1.265.065 1.562.237.304.258.582.32.774 1.354.043.448.064 1.91.064 2.895v4.424c0 .9-.02 2.384-.043 2.92-.043.84-.344 1.895-.473 2.085-.193.15-1.072.277-1.934.318-.064.13-.105.217-.105.344 0 .13.042.195.106.303h.71c.687 0 2.404-.063 2.982-.063.537 0 1.27.043 2.513.043.69 0 2.706.13 7.046.13.172 0 .364.02.582-.044.062-.106.062-.15.084-.344.045-.433.045-1.483.045-3.224m-15.89-11.722c0-.086-.022-.217-.106-.238h-.73c-.515 0-1.33.043-1.696.043-1.738 0-2.36-.106-2.62-.106h-.386c-.04.107-.107.172-.107.277 0 .09.044.153.044.24a7.68 7.68 0 0 1 1.482.323c.26.254.537.77.537 1.352 0 .215-.215 1.223-.516 1.953l-3.457 8.503-4.252-10.758c.062-.516.342-1.008.707-1.2.367-.044.816-.173 1.396-.173a.772.772 0 0 0 .088-.3c0-.088-.02-.217-.107-.238h-.536c-.664 0-1.674.086-2.814.086-.492 0-1.457-.043-2.402-.043h-.838c-.043.086-.088.13-.088.256 0 .132.023.175.064.26a7.39 7.39 0 0 1 1.807.73c.408.6 1.287 2.77 1.762 3.91l1.78 4.29c1.48 3.567 2.362 5.95 2.468 6.358.11.064 0 .13.195.13.193 0 .172-.044.213-.15l5.544-13.312a4.2 4.2 0 0 1 .773-1.225c.342-.386 1.053-.534 1.715-.687.02-.084.085-.172.085-.277M248.213 20.77c0-.107-.02-.212-.063-.298-.32-.02-1.203-.11-1.588-.193-.345-.406-.582-.882-.73-1.656-.02-1.03-.042-3.37-.042-5.367V7.8c0-.58.235-1.03.387-1.158.408-.387 1.223-.475 1.91-.56a.65.65 0 0 0 .063-.276.372.372 0 0 0-.104-.26h-.625c-.9 0-2.188.107-2.92.107-.45 0-1.737-.064-2.683-.086h-.474c-.064.086-.108.086-.108.28 0 .085.024.17.044.278 1.052.086 1.524.19 1.675.3.258.196.623.667.707 1.827.023.406.045 1.502.066 3.477.02 1.073.043 2.533.043 3.78 0 .623-.042 2.232-.063 2.982-.045.516-.15 1.01-.303 1.29-.256.216-.512.6-2.08.71a.797.797 0 0 0-.064.32c0 .17.04.17.04.278h.367c.858 0 2.19-.107 3.306-.107.322 0 1.74.064 2.447.064h.71a.492.492 0 0 0 .083-.278m-9.706-15.01a.37.37 0 0 0-.062-.214h-.495c-1.073 0-1.545.043-3.478.043-.667 0-1.653-.044-1.89-.044h-.56c-.064.043-.084.19-.084.28 0 .106.02.15.105.235.344.106 1.655.257 2.213.624.388.45.56 1.354.622 2.19.02.32.044.644.044 1.522v6.378c0 .52-.023.688-.044.925-.363-.407-.988-1.204-1.825-2.19l-8.204-9.578a1.31 1.31 0 0 0-.32-.28c-.175 0-.39-.02-.56-.02-1.376 0-2.576-.064-2.942-.064-.04.086-.064.13-.064.213 0 .046.023.22.043.282.322.086 1.268.193 1.654.602.343.387.858.838 1.054 1.266.063.15.084.387.084.688 0 1.12-.064 3.158-.064 4.66v4.577c0 .705-.064 1.266-.13 1.63-.448.472-1.138.814-2.253 1.095-.042.11-.084.148-.084.26 0 .062.02.19.063.213h.407c.43 0 1.418-.064 2.06-.064.946 0 1.376.063 2.257.063h1.29c.083-.02.104-.193.104-.28a.422.422 0 0 0-.062-.212c-.752-.193-1.848-.366-2.577-1.33-.15-.325-.28-1.958-.28-2.708 0-.688-.022-1.805-.022-3.07 0-1.696.023-4.036.043-4.788.13.15.323.39.474.56l10.18 11.918c.105.106.15.127.26.127.104 0 .04 0 .127-.04.044-.107.106-.455.106-.97 0-.62-.02-1.266-.02-1.586V9.538c0-2.682 1.267-3.434 2.748-3.498a.47.47 0 0 0 .083-.28m-19.883.108a.444.444 0 0 0-.108-.28h-.62c-.667 0-1.57.044-2.342.044-.86 0-1.825-.043-2.448-.043h-.774c-.063.13-.085.17-.085.278 0 .086.02.172.064.28.09 0 1.657.02 1.934.405.235.322.752 1.117.838 1.592.042.213.173 1.094.173 2.36 0 1.825 0 3.05-.02 3.694-.043 1.2-.174 2.145-.388 2.853-.603 1.87-1.998 2.79-4.21 2.79-.944 0-1.76-.19-2.513-.536-1.396-.688-2.062-1.996-2.082-2.703l-.11-6.442-.02-2.62c0-.493.624-.946.837-1.2.17-.088 1.116-.176 1.65-.217.07-.127.11-.193.11-.3a.37.37 0 0 0-.15-.28l-.815.02c-.796.022-1.848.044-2.514.044-1.027 0-1.824-.022-2.467-.022h-.904c-.086.064-.106.19-.106.3 0 .11.02.194.084.26.688.087 1.14.15 1.44.214.364.215.622.58.753.945.02.28.063.965.063 2.318v5.15c0 1.333.062 2.278.215 2.878.28 1.12.88 2 1.868 2.644 1.052.688 2.362 1.03 3.93 1.03 1.44 0 2.663-.3 3.693-.878 1.074-.58 1.74-1.526 2.125-2.858a9.76 9.76 0 0 0 .344-2.555v-4.125c0-.77.042-1.738.042-2.123.02-1.16.324-1.85.644-2.364.345-.11.646-.172 1.782-.3.043-.086.086-.15.086-.258"/></svg>