<svg xmlns="http://www.w3.org/2000/svg" width="32" height="32" viewBox="0 0 32 32"><path fill="#55ACEE" d="M26.667 0H5.334C2.4 0 0 2.4 0 5.334v21.332C0 29.602 2.4 32 5.334 32h21.333A5.346 5.346 0 0 0 32 26.666V5.334C32 2.4 29.602 0 26.667 0zm-2.715 11.92c.008.177.012.354.012.532 0 5.422-4.127 11.675-11.675 11.675A11.61 11.61 0 0 1 6 22.283a8.225 8.225 0 0 0 6.075-1.7 4.105 4.105 0 0 1-3.834-2.847 4.096 4.096 0 0 0 1.853-.07 4.105 4.105 0 0 1-3.29-4.024v-.05a4.09 4.09 0 0 0 1.857.512 4.1 4.1 0 0 1-1.27-5.478 11.65 11.65 0 0 0 8.458 4.287A4.103 4.103 0 0 1 22.84 9.17a8.198 8.198 0 0 0 2.606-.995 4.123 4.123 0 0 1-1.805 2.27c.83-.1 1.622-.32 2.358-.645a8.26 8.26 0 0 1-2.046 2.123z"/></svg>